<mxfile host="Electron" modified="2024-06-26T19:12:30.790Z" agent="Mozilla/5.0 (Windows NT 10.0; Win64; x64) AppleWebKit/537.36 (KHTML, like Gecko) draw.io/24.6.1 Chrome/124.0.6367.207 Electron/30.0.6 Safari/537.36" etag="hlYUFvt7QPSP-EeQvUSA" version="24.6.1" type="device">
  <diagram name="Page-1" id="5f0bae14-7c28-e335-631c-24af17079c00">
    <mxGraphModel dx="3258" dy="1580" grid="1" gridSize="10" guides="1" tooltips="1" connect="1" arrows="1" fold="1" page="0" pageScale="1" pageWidth="1100" pageHeight="850" background="none" math="0" shadow="0">
      <root>
        <mxCell id="0" />
        <mxCell id="1" parent="0" />
        <mxCell id="12uHre7UhJ3h7t7p80wL-11" value="" style="rounded=0;whiteSpace=wrap;html=1;opacity=30;fillColor=#dae8fc;strokeColor=#6c8ebf;" parent="1" vertex="1">
          <mxGeometry x="-170" y="-10" width="2600" height="2710" as="geometry" />
        </mxCell>
        <mxCell id="12uHre7UhJ3h7t7p80wL-7" value="" style="rounded=0;whiteSpace=wrap;html=1;opacity=30;fillColor=#b0e3e6;strokeColor=#0e8088;" parent="1" vertex="1">
          <mxGeometry x="120" y="1830" width="2050" height="810" as="geometry" />
        </mxCell>
        <mxCell id="12uHre7UhJ3h7t7p80wL-4" value="" style="rounded=0;whiteSpace=wrap;html=1;opacity=30;fillColor=#d5e8d4;strokeColor=#82b366;" parent="1" vertex="1">
          <mxGeometry x="280" y="988" width="2120" height="772" as="geometry" />
        </mxCell>
        <mxCell id="12uHre7UhJ3h7t7p80wL-2" value="" style="rounded=0;whiteSpace=wrap;html=1;opacity=30;fillColor=#f8cecc;strokeColor=#b85450;" parent="1" vertex="1">
          <mxGeometry x="-800" y="130" width="490" height="320" as="geometry" />
        </mxCell>
        <mxCell id="12uHre7UhJ3h7t7p80wL-9" value="" style="rounded=0;whiteSpace=wrap;html=1;opacity=30;fillColor=#d0cee2;strokeColor=#56517e;" parent="1" vertex="1">
          <mxGeometry x="1300" y="2040" width="800" height="489.5" as="geometry" />
        </mxCell>
        <mxCell id="12uHre7UhJ3h7t7p80wL-8" value="" style="rounded=0;whiteSpace=wrap;html=1;opacity=30;fillColor=#fad7ac;strokeColor=#b46504;" parent="1" vertex="1">
          <mxGeometry x="250" y="2040.5" width="800" height="489.5" as="geometry" />
        </mxCell>
        <mxCell id="12uHre7UhJ3h7t7p80wL-10" value="" style="rounded=0;whiteSpace=wrap;html=1;opacity=30;fillColor=#b0e3e6;strokeColor=#0e8088;" parent="1" vertex="1">
          <mxGeometry x="1270" y="40" width="1120" height="670" as="geometry" />
        </mxCell>
        <mxCell id="yDijstEZP9wWc468jZzv-5" style="edgeStyle=orthogonalEdgeStyle;rounded=0;orthogonalLoop=1;jettySize=auto;html=1;dashed=1;shape=flexArrow;entryX=1.004;entryY=0.784;entryDx=0;entryDy=0;entryPerimeter=0;" parent="1" source="yDijstEZP9wWc468jZzv-1" target="yDijstEZP9wWc468jZzv-7" edge="1">
          <mxGeometry relative="1" as="geometry">
            <mxPoint x="-300" y="380" as="targetPoint" />
            <Array as="points">
              <mxPoint x="-175" y="380" />
            </Array>
          </mxGeometry>
        </mxCell>
        <mxCell id="yDijstEZP9wWc468jZzv-45" style="edgeStyle=orthogonalEdgeStyle;rounded=0;orthogonalLoop=1;jettySize=auto;html=1;" parent="1" source="yDijstEZP9wWc468jZzv-1" edge="1">
          <mxGeometry relative="1" as="geometry">
            <mxPoint x="460" y="97" as="targetPoint" />
            <Array as="points">
              <mxPoint x="290" y="375" />
              <mxPoint x="290" y="97" />
            </Array>
          </mxGeometry>
        </mxCell>
        <mxCell id="yDijstEZP9wWc468jZzv-141" style="edgeStyle=orthogonalEdgeStyle;rounded=0;orthogonalLoop=1;jettySize=auto;html=1;exitX=0.25;exitY=0;exitDx=0;exitDy=0;" parent="1" source="yDijstEZP9wWc468jZzv-1" target="yDijstEZP9wWc468jZzv-138" edge="1">
          <mxGeometry relative="1" as="geometry">
            <mxPoint x="1520" y="-270" as="targetPoint" />
            <Array as="points">
              <mxPoint x="32" y="150" />
              <mxPoint x="775" y="150" />
              <mxPoint x="775" y="290" />
              <mxPoint x="1380" y="290" />
            </Array>
          </mxGeometry>
        </mxCell>
        <mxCell id="yDijstEZP9wWc468jZzv-1" value="Game" style="swimlane;fontStyle=1;align=center;verticalAlign=top;childLayout=stackLayout;horizontal=1;startSize=26;horizontalStack=0;resizeParent=1;resizeParentMax=0;resizeLast=0;collapsible=1;marginBottom=0;whiteSpace=wrap;html=1;" parent="1" vertex="1">
          <mxGeometry x="-40" y="170" width="290" height="410" as="geometry" />
        </mxCell>
        <mxCell id="yDijstEZP9wWc468jZzv-2" value="&lt;div&gt;&lt;span style=&quot;font-size: 14px; text-wrap: nowrap;&quot;&gt;desk: Desk&lt;/span&gt;&lt;/div&gt;&lt;div&gt;&lt;span style=&quot;font-size: 14px; text-wrap: nowrap;&quot;&gt;numPlayer: int&lt;/span&gt;&lt;/div&gt;&lt;div&gt;&lt;span style=&quot;font-size: 14px; text-wrap: nowrap;&quot;&gt;status: GameStatus&lt;/span&gt;&lt;/div&gt;&lt;div&gt;&lt;span style=&quot;font-size: 14px; text-wrap: nowrap;&quot;&gt;listeners: ArrayList&amp;lt;GameListener&amp;gt;&lt;/span&gt;&lt;/div&gt;&lt;div&gt;&lt;span style=&quot;font-size: 14px; text-wrap: nowrap;&quot;&gt;players: ArrayList&amp;lt;Player&amp;gt;&lt;/span&gt;&lt;/div&gt;&lt;div&gt;&lt;span style=&quot;font-size: 14px; text-wrap: nowrap;&quot;&gt;listener: ListenersHandler&lt;/span&gt;&lt;/div&gt;&lt;div&gt;&lt;span style=&quot;font-size: 14px; text-wrap: nowrap;&quot;&gt;idGame: int&lt;/span&gt;&lt;/div&gt;&lt;div&gt;&lt;span style=&quot;font-size: 14px; text-wrap: nowrap;&quot;&gt;onlinePlayers: ArrayList&amp;lt;Player&amp;gt;&lt;/span&gt;&lt;/div&gt;&lt;div&gt;&lt;span style=&quot;font-size: 14px; text-wrap: nowrap;&quot;&gt;winner: ArrayList&amp;lt;Player&amp;gt;&lt;/span&gt;&lt;/div&gt;&lt;div&gt;&lt;span style=&quot;font-size: 14px; text-wrap: nowrap;&quot;&gt;currPlayer: int&lt;/span&gt;&lt;/div&gt;&lt;div&gt;&lt;span style=&quot;font-size: 14px; text-wrap: nowrap;&quot;&gt;chat: ArrayList&amp;lt;ChatMessage&amp;gt;&lt;/span&gt;&lt;/div&gt;&lt;div&gt;&lt;span style=&quot;font-size: 14px; text-wrap: nowrap;&quot;&gt;size: int&lt;/span&gt;&lt;/div&gt;" style="text;strokeColor=none;fillColor=none;align=left;verticalAlign=top;spacingLeft=4;spacingRight=4;overflow=hidden;rotatable=0;points=[[0,0.5],[1,0.5]];portConstraint=eastwest;whiteSpace=wrap;html=1;" parent="yDijstEZP9wWc468jZzv-1" vertex="1">
          <mxGeometry y="26" width="290" height="214" as="geometry" />
        </mxCell>
        <mxCell id="yDijstEZP9wWc468jZzv-3" value="" style="line;strokeWidth=1;fillColor=none;align=left;verticalAlign=middle;spacingTop=-1;spacingLeft=3;spacingRight=3;rotatable=0;labelPosition=right;points=[];portConstraint=eastwest;strokeColor=inherit;" parent="yDijstEZP9wWc468jZzv-1" vertex="1">
          <mxGeometry y="240" width="290" height="8" as="geometry" />
        </mxCell>
        <mxCell id="yDijstEZP9wWc468jZzv-4" value="&lt;div&gt;&lt;span style=&quot;font-size: 14px; text-wrap: nowrap;&quot;&gt;- decideWinner(): void&lt;/span&gt;&lt;/div&gt;&lt;div&gt;&lt;span style=&quot;font-size: 14px; text-wrap: nowrap;&quot;&gt;+ addMessage(ChatMessage): void&lt;/span&gt;&lt;/div&gt;&lt;div&gt;&lt;span style=&quot;font-size: 14px; text-wrap: nowrap;&quot;&gt;+ removeListener(GameListener): void&lt;/span&gt;&lt;/div&gt;&lt;div&gt;&lt;span style=&quot;font-size: 14px; text-wrap: nowrap;&quot;&gt;+ addListener(GameListener): void&lt;/span&gt;&lt;/div&gt;&lt;div&gt;&lt;span style=&quot;font-size: 14px; text-wrap: nowrap;&quot;&gt;+ addPlayer(String, GameListener): boolean&lt;/span&gt;&lt;/div&gt;&lt;div&gt;&lt;span style=&quot;font-size: 14px; text-wrap: nowrap;&quot;&gt;+ removePlayer(String): boolean&lt;/span&gt;&lt;/div&gt;&lt;div&gt;&lt;span style=&quot;font-size: 14px; text-wrap: nowrap;&quot;&gt;+ updateCurrPlayer(): void&lt;/span&gt;&lt;/div&gt;&lt;div&gt;&lt;span style=&quot;font-size: 14px; text-wrap: nowrap;&quot;&gt;+ addMessage(String, String, String): void&lt;/span&gt;&lt;/div&gt;&lt;div&gt;&lt;span style=&quot;font-size: 14px; text-wrap: nowrap;&quot;&gt;+ stopGame(): boolean&lt;/span&gt;&lt;/div&gt;&lt;div&gt;&lt;br&gt;&lt;/div&gt;" style="text;strokeColor=none;fillColor=none;align=left;verticalAlign=top;spacingLeft=4;spacingRight=4;overflow=hidden;rotatable=0;points=[[0,0.5],[1,0.5]];portConstraint=eastwest;whiteSpace=wrap;html=1;" parent="yDijstEZP9wWc468jZzv-1" vertex="1">
          <mxGeometry y="248" width="290" height="162" as="geometry" />
        </mxCell>
        <mxCell id="yDijstEZP9wWc468jZzv-7" value="exceptions" style="shape=umlFrame;whiteSpace=wrap;html=1;pointerEvents=0;fillColor=#f8cecc;strokeColor=#b85450;width=80;height=30;" parent="1" vertex="1">
          <mxGeometry x="-800" y="130" width="490" height="320" as="geometry" />
        </mxCell>
        <mxCell id="yDijstEZP9wWc468jZzv-8" value="CannotJoinGameException" style="swimlane;fontStyle=0;childLayout=stackLayout;horizontal=1;startSize=26;fillColor=none;horizontalStack=0;resizeParent=1;resizeParentMax=0;resizeLast=0;collapsible=1;marginBottom=0;whiteSpace=wrap;html=1;" parent="1" vertex="1">
          <mxGeometry x="-760" y="180" width="410" height="50" as="geometry" />
        </mxCell>
        <mxCell id="yDijstEZP9wWc468jZzv-12" value="PlayerAlreadyJoinedException" style="swimlane;fontStyle=0;childLayout=stackLayout;horizontal=1;startSize=26;fillColor=none;horizontalStack=0;resizeParent=1;resizeParentMax=0;resizeLast=0;collapsible=1;marginBottom=0;whiteSpace=wrap;html=1;" parent="1" vertex="1">
          <mxGeometry x="-760" y="240" width="410" height="50" as="geometry" />
        </mxCell>
        <mxCell id="yDijstEZP9wWc468jZzv-13" value="DeskIsFullException" style="swimlane;fontStyle=0;childLayout=stackLayout;horizontal=1;startSize=26;fillColor=none;horizontalStack=0;resizeParent=1;resizeParentMax=0;resizeLast=0;collapsible=1;marginBottom=0;whiteSpace=wrap;html=1;" parent="1" vertex="1">
          <mxGeometry x="-760" y="310" width="410" height="50" as="geometry" />
        </mxCell>
        <mxCell id="yDijstEZP9wWc468jZzv-14" value="&amp;lt;&amp;lt;throws&amp;gt;&amp;gt;" style="text;align=center;fontStyle=1;verticalAlign=middle;spacingLeft=3;spacingRight=3;strokeColor=none;rotatable=0;points=[[0,0.5],[1,0.5]];portConstraint=eastwest;html=1;" parent="1" vertex="1">
          <mxGeometry x="-230" y="346" width="80" height="26" as="geometry" />
        </mxCell>
        <mxCell id="yDijstEZP9wWc468jZzv-16" value="NoSuchGameException" style="swimlane;fontStyle=0;childLayout=stackLayout;horizontal=1;startSize=26;fillColor=none;horizontalStack=0;resizeParent=1;resizeParentMax=0;resizeLast=0;collapsible=1;marginBottom=0;whiteSpace=wrap;html=1;" parent="1" vertex="1">
          <mxGeometry x="-760" y="374" width="410" height="50" as="geometry" />
        </mxCell>
        <mxCell id="yDijstEZP9wWc468jZzv-17" value="model" style="shape=umlFrame;whiteSpace=wrap;html=1;pointerEvents=0;fillColor=#dae8fc;strokeColor=#6c8ebf;" parent="1" vertex="1">
          <mxGeometry x="-170" y="-10" width="2600" height="2710" as="geometry" />
        </mxCell>
        <mxCell id="yDijstEZP9wWc468jZzv-18" value="GameImmutable" style="swimlane;fontStyle=1;align=center;verticalAlign=top;childLayout=stackLayout;horizontal=1;startSize=26;horizontalStack=0;resizeParent=1;resizeParentMax=0;resizeLast=0;collapsible=1;marginBottom=0;whiteSpace=wrap;html=1;" parent="1" vertex="1">
          <mxGeometry x="400" y="170" width="290" height="198" as="geometry" />
        </mxCell>
        <mxCell id="yDijstEZP9wWc468jZzv-21" value="&lt;span style=&quot;font-size: 14px; text-wrap: nowrap;&quot;&gt;chat: List&amp;lt;ChatMessage&amp;gt;&lt;/span&gt;&lt;br style=&quot;font-size: 14px; text-wrap: nowrap;&quot;&gt;&lt;span style=&quot;font-size: 14px; text-wrap: nowrap;&quot;&gt;desk: Desk&lt;/span&gt;&lt;br style=&quot;font-size: 14px; text-wrap: nowrap;&quot;&gt;&lt;span style=&quot;font-size: 14px; text-wrap: nowrap;&quot;&gt;numPlayer: int&lt;/span&gt;&lt;br style=&quot;font-size: 14px; text-wrap: nowrap;&quot;&gt;&lt;span style=&quot;font-size: 14px; text-wrap: nowrap;&quot;&gt;status: GameStatus&lt;/span&gt;&lt;br style=&quot;font-size: 14px; text-wrap: nowrap;&quot;&gt;&lt;span style=&quot;font-size: 14px; text-wrap: nowrap;&quot;&gt;winner: List&amp;lt;Player&amp;gt;&lt;/span&gt;&lt;br style=&quot;font-size: 14px; text-wrap: nowrap;&quot;&gt;&lt;span style=&quot;font-size: 14px; text-wrap: nowrap;&quot;&gt;idGame: int&lt;/span&gt;&lt;br style=&quot;font-size: 14px; text-wrap: nowrap;&quot;&gt;&lt;span style=&quot;font-size: 14px; text-wrap: nowrap;&quot;&gt;players: List&amp;lt;Player&amp;gt;&lt;/span&gt;&lt;br style=&quot;font-size: 14px; text-wrap: nowrap;&quot;&gt;&lt;span style=&quot;font-size: 14px; text-wrap: nowrap;&quot;&gt;currPlayer: int&lt;/span&gt;&lt;br style=&quot;font-size: 14px; text-wrap: nowrap;&quot;&gt;&lt;span style=&quot;font-size: 14px; text-wrap: nowrap;&quot;&gt;size: int&lt;/span&gt;&lt;div&gt;&lt;span style=&quot;font-size: 14px; text-wrap: nowrap;&quot;&gt;&lt;br&gt;&lt;/span&gt;&lt;/div&gt;" style="text;strokeColor=none;fillColor=none;align=left;verticalAlign=top;spacingLeft=4;spacingRight=4;overflow=hidden;rotatable=0;points=[[0,0.5],[1,0.5]];portConstraint=eastwest;whiteSpace=wrap;html=1;" parent="yDijstEZP9wWc468jZzv-18" vertex="1">
          <mxGeometry y="26" width="290" height="164" as="geometry" />
        </mxCell>
        <mxCell id="6hzLT0k25RyZsXePGHMC-2" value="" style="line;strokeWidth=1;fillColor=none;align=left;verticalAlign=middle;spacingTop=-1;spacingLeft=3;spacingRight=3;rotatable=0;labelPosition=right;points=[];portConstraint=eastwest;strokeColor=inherit;" parent="yDijstEZP9wWc468jZzv-18" vertex="1">
          <mxGeometry y="190" width="290" height="8" as="geometry" />
        </mxCell>
        <mxCell id="yDijstEZP9wWc468jZzv-22" style="edgeStyle=orthogonalEdgeStyle;rounded=0;orthogonalLoop=1;jettySize=auto;html=1;entryX=0.006;entryY=0.447;entryDx=0;entryDy=0;entryPerimeter=0;" parent="1" source="yDijstEZP9wWc468jZzv-2" target="yDijstEZP9wWc468jZzv-21" edge="1">
          <mxGeometry relative="1" as="geometry" />
        </mxCell>
        <mxCell id="yDijstEZP9wWc468jZzv-144" style="edgeStyle=orthogonalEdgeStyle;rounded=0;orthogonalLoop=1;jettySize=auto;html=1;" parent="1" source="yDijstEZP9wWc468jZzv-27" target="yDijstEZP9wWc468jZzv-139" edge="1">
          <mxGeometry relative="1" as="geometry">
            <Array as="points">
              <mxPoint x="680" y="900" />
              <mxPoint x="1380" y="900" />
            </Array>
          </mxGeometry>
        </mxCell>
        <mxCell id="yDijstEZP9wWc468jZzv-147" style="edgeStyle=orthogonalEdgeStyle;rounded=0;orthogonalLoop=1;jettySize=auto;html=1;exitX=1;exitY=0.5;exitDx=0;exitDy=0;" parent="1" source="yDijstEZP9wWc468jZzv-25" target="yDijstEZP9wWc468jZzv-135" edge="1">
          <mxGeometry relative="1" as="geometry">
            <Array as="points">
              <mxPoint x="705" y="520" />
              <mxPoint x="820" y="520" />
              <mxPoint x="820" y="113" />
            </Array>
          </mxGeometry>
        </mxCell>
        <mxCell id="dlT7NASqLmQs_A34ritj-1" style="edgeStyle=orthogonalEdgeStyle;rounded=0;orthogonalLoop=1;jettySize=auto;html=1;" parent="1" source="yDijstEZP9wWc468jZzv-24" target="yDijstEZP9wWc468jZzv-65" edge="1">
          <mxGeometry relative="1" as="geometry">
            <Array as="points">
              <mxPoint x="575" y="890" />
              <mxPoint x="575" y="890" />
            </Array>
          </mxGeometry>
        </mxCell>
        <mxCell id="yDijstEZP9wWc468jZzv-24" value="Player" style="swimlane;fontStyle=1;align=center;verticalAlign=top;childLayout=stackLayout;horizontal=1;startSize=26;horizontalStack=0;resizeParent=1;resizeParentMax=0;resizeLast=0;collapsible=1;marginBottom=0;whiteSpace=wrap;html=1;" parent="1" vertex="1">
          <mxGeometry x="385" y="420" width="320" height="410" as="geometry" />
        </mxCell>
        <mxCell id="yDijstEZP9wWc468jZzv-25" value="&lt;span style=&quot;text-wrap: nowrap; font-size: 14px;&quot;&gt;cardObjective: ArrayList&amp;lt;CardObjective&amp;gt;&lt;/span&gt;&lt;br style=&quot;text-wrap: nowrap; font-size: 14px;&quot;&gt;&lt;span style=&quot;text-wrap: nowrap; font-size: 14px;&quot;&gt;number: int&lt;/span&gt;&lt;br style=&quot;text-wrap: nowrap; font-size: 14px;&quot;&gt;&lt;span style=&quot;text-wrap: nowrap; font-size: 14px;&quot;&gt;selfListener: GameListener&lt;/span&gt;&lt;br style=&quot;text-wrap: nowrap; font-size: 14px;&quot;&gt;&lt;span style=&quot;text-wrap: nowrap; font-size: 14px;&quot;&gt;color: Color&lt;/span&gt;&lt;br style=&quot;text-wrap: nowrap; font-size: 14px;&quot;&gt;&lt;span style=&quot;text-wrap: nowrap; font-size: 14px;&quot;&gt;cardStarter: CardStarter&lt;/span&gt;&lt;br style=&quot;text-wrap: nowrap; font-size: 14px;&quot;&gt;&lt;span style=&quot;text-wrap: nowrap; font-size: 14px;&quot;&gt;pointObjective: int&lt;/span&gt;&lt;br style=&quot;text-wrap: nowrap; font-size: 14px;&quot;&gt;&lt;span style=&quot;text-wrap: nowrap; font-size: 14px;&quot;&gt;hand: ArrayList&amp;lt;Card&amp;gt;&lt;/span&gt;&lt;br style=&quot;text-wrap: nowrap; font-size: 14px;&quot;&gt;&lt;span style=&quot;text-wrap: nowrap; font-size: 14px;&quot;&gt;online: boolean&lt;/span&gt;&lt;br style=&quot;text-wrap: nowrap; font-size: 14px;&quot;&gt;&lt;span style=&quot;text-wrap: nowrap; font-size: 14px;&quot;&gt;skipTurn: boolean&lt;/span&gt;&lt;br style=&quot;text-wrap: nowrap; font-size: 14px;&quot;&gt;&lt;span style=&quot;text-wrap: nowrap; font-size: 14px;&quot;&gt;score: int&lt;/span&gt;&lt;br style=&quot;text-wrap: nowrap; font-size: 14px;&quot;&gt;&lt;span style=&quot;text-wrap: nowrap; font-size: 14px;&quot;&gt;nickname: String&lt;/span&gt;&lt;br style=&quot;text-wrap: nowrap; font-size: 14px;&quot;&gt;&lt;span style=&quot;text-wrap: nowrap; font-size: 14px;&quot;&gt;action: PlayerAction&lt;/span&gt;&lt;br style=&quot;text-wrap: nowrap; font-size: 14px;&quot;&gt;&lt;span style=&quot;text-wrap: nowrap; font-size: 14px;&quot;&gt;codex: Codex&lt;/span&gt;" style="text;strokeColor=none;fillColor=none;align=left;verticalAlign=top;spacingLeft=4;spacingRight=4;overflow=hidden;rotatable=0;points=[[0,0.5],[1,0.5]];portConstraint=eastwest;whiteSpace=wrap;html=1;" parent="yDijstEZP9wWc468jZzv-24" vertex="1">
          <mxGeometry y="26" width="320" height="234" as="geometry" />
        </mxCell>
        <mxCell id="yDijstEZP9wWc468jZzv-26" value="" style="line;strokeWidth=1;fillColor=none;align=left;verticalAlign=middle;spacingTop=-1;spacingLeft=3;spacingRight=3;rotatable=0;labelPosition=right;points=[];portConstraint=eastwest;strokeColor=inherit;" parent="yDijstEZP9wWc468jZzv-24" vertex="1">
          <mxGeometry y="260" width="320" height="8" as="geometry" />
        </mxCell>
        <mxCell id="yDijstEZP9wWc468jZzv-27" value="&lt;div&gt;&lt;span style=&quot;font-size: 14px; text-wrap: nowrap;&quot;&gt;+ setOnline(Game, boolean, GameListener): void&lt;/span&gt;&lt;/div&gt;&lt;div&gt;&lt;span style=&quot;font-size: 14px; text-wrap: nowrap;&quot;&gt;+ calculatePlayerScore(): void&lt;/span&gt;&lt;/div&gt;&lt;div&gt;&lt;span style=&quot;font-size: 14px; text-wrap: nowrap;&quot;&gt;+ removeCardFromHand(int): void&lt;/span&gt;&lt;/div&gt;&lt;div&gt;&lt;span style=&quot;font-size: 14px; text-wrap: nowrap;&quot;&gt;+ checkSkipTurn(): void&lt;/span&gt;&lt;/div&gt;&lt;div&gt;&lt;span style=&quot;font-size: 14px; text-wrap: nowrap;&quot;&gt;+ setAction(PlayerAction, Game): void&lt;/span&gt;&lt;/div&gt;&lt;div&gt;&lt;span style=&quot;font-size: 14px; text-wrap: nowrap;&quot;&gt;+ calculatePointObjective(Desk): void&lt;/span&gt;&lt;/div&gt;&lt;div&gt;&lt;span style=&quot;font-size: 14px; text-wrap: nowrap;&quot;&gt;+ addCardToHand(Card): void&lt;/span&gt;&lt;/div&gt;&lt;div&gt;&lt;span style=&quot;font-size: 14px; text-wrap: nowrap;&quot;&gt;+ selectObjectiveCard(int, Game): boolean&lt;/span&gt;&lt;/div&gt;&lt;div&gt;&lt;br&gt;&lt;/div&gt;" style="text;strokeColor=none;fillColor=none;align=left;verticalAlign=top;spacingLeft=4;spacingRight=4;overflow=hidden;rotatable=0;points=[[0,0.5],[1,0.5]];portConstraint=eastwest;whiteSpace=wrap;html=1;" parent="yDijstEZP9wWc468jZzv-24" vertex="1">
          <mxGeometry y="268" width="320" height="142" as="geometry" />
        </mxCell>
        <mxCell id="yDijstEZP9wWc468jZzv-31" style="edgeStyle=orthogonalEdgeStyle;rounded=0;orthogonalLoop=1;jettySize=auto;html=1;entryX=-0.002;entryY=0.517;entryDx=0;entryDy=0;entryPerimeter=0;" parent="1" target="yDijstEZP9wWc468jZzv-25" edge="1">
          <mxGeometry relative="1" as="geometry">
            <mxPoint x="250" y="520" as="sourcePoint" />
          </mxGeometry>
        </mxCell>
        <mxCell id="yDijstEZP9wWc468jZzv-41" value="ChatMessage" style="swimlane;fontStyle=1;align=center;verticalAlign=top;childLayout=stackLayout;horizontal=1;startSize=26;horizontalStack=0;resizeParent=1;resizeParentMax=0;resizeLast=0;collapsible=1;marginBottom=0;whiteSpace=wrap;html=1;" parent="1" vertex="1">
          <mxGeometry x="460" y="20" width="160" height="120" as="geometry" />
        </mxCell>
        <mxCell id="6hzLT0k25RyZsXePGHMC-3" value="&lt;span style=&quot;font-size: 14px;&quot;&gt;&amp;nbsp;text: String&lt;/span&gt;&lt;br style=&quot;font-size: 14px;&quot;&gt;&lt;span style=&quot;font-size: 14px;&quot;&gt;&amp;nbsp;receiver: String&lt;/span&gt;&lt;br style=&quot;font-size: 14px;&quot;&gt;&lt;span style=&quot;font-size: 14px;&quot;&gt;&amp;nbsp;sender: String&lt;/span&gt;&lt;br style=&quot;font-size: 14px;&quot;&gt;&lt;span style=&quot;font-size: 14px;&quot;&gt;&amp;nbsp;timestamp: LocalTime&lt;/span&gt;" style="text;html=1;align=left;verticalAlign=middle;resizable=0;points=[];autosize=1;strokeColor=none;fillColor=none;" parent="yDijstEZP9wWc468jZzv-41" vertex="1">
          <mxGeometry y="26" width="160" height="80" as="geometry" />
        </mxCell>
        <mxCell id="yDijstEZP9wWc468jZzv-43" value="" style="line;strokeWidth=1;fillColor=none;align=left;verticalAlign=middle;spacingTop=-1;spacingLeft=3;spacingRight=3;rotatable=0;labelPosition=right;points=[];portConstraint=eastwest;strokeColor=inherit;" parent="yDijstEZP9wWc468jZzv-41" vertex="1">
          <mxGeometry y="106" width="160" height="14" as="geometry" />
        </mxCell>
        <mxCell id="dlT7NASqLmQs_A34ritj-2" style="edgeStyle=orthogonalEdgeStyle;rounded=0;orthogonalLoop=1;jettySize=auto;html=1;entryX=0.5;entryY=0;entryDx=0;entryDy=0;" parent="1" source="yDijstEZP9wWc468jZzv-47" target="6hzLT0k25RyZsXePGHMC-16" edge="1">
          <mxGeometry relative="1" as="geometry">
            <Array as="points">
              <mxPoint x="930" y="1790" />
              <mxPoint x="1175" y="1790" />
            </Array>
          </mxGeometry>
        </mxCell>
        <mxCell id="yDijstEZP9wWc468jZzv-47" value="Codex" style="swimlane;fontStyle=1;align=center;verticalAlign=top;childLayout=stackLayout;horizontal=1;startSize=26;horizontalStack=0;resizeParent=1;resizeParentMax=0;resizeLast=0;collapsible=1;marginBottom=0;whiteSpace=wrap;html=1;" parent="1" vertex="1">
          <mxGeometry x="850" y="300" width="320" height="570" as="geometry" />
        </mxCell>
        <mxCell id="yDijstEZP9wWc468jZzv-48" value="&lt;div&gt;&lt;span style=&quot;font-size: 14px; text-wrap: nowrap;&quot;&gt;codexFillOrder: ArrayList&amp;lt;Coords&amp;gt;&lt;/span&gt;&lt;/div&gt;&lt;div&gt;&lt;span style=&quot;font-size: 14px; text-wrap: nowrap;&quot;&gt;maxColumn: int&lt;/span&gt;&lt;/div&gt;&lt;div&gt;&lt;span style=&quot;font-size: 14px; text-wrap: nowrap;&quot;&gt;minRow: int&lt;/span&gt;&lt;/div&gt;&lt;div&gt;&lt;span style=&quot;font-size: 14px; text-wrap: nowrap;&quot;&gt;pointCodex: int&lt;/span&gt;&lt;/div&gt;&lt;div&gt;&lt;span style=&quot;font-size: 14px; text-wrap: nowrap;&quot;&gt;minColumn: int&lt;/span&gt;&lt;/div&gt;&lt;div&gt;&lt;span style=&quot;font-size: 14px; text-wrap: nowrap;&quot;&gt;codex: Side[][]&lt;/span&gt;&lt;/div&gt;&lt;div&gt;&lt;span style=&quot;font-size: 14px; text-wrap: nowrap;&quot;&gt;maxRow: int&lt;/span&gt;&lt;/div&gt;&lt;div&gt;&lt;span style=&quot;font-size: 14px; text-wrap: nowrap;&quot;&gt;cardStarterInserted: boolean&lt;/span&gt;&lt;/div&gt;&lt;div&gt;&lt;span style=&quot;font-size: 14px; text-wrap: nowrap;&quot;&gt;counterCodex: int[]&lt;/span&gt;&lt;/div&gt;" style="text;strokeColor=none;fillColor=none;align=left;verticalAlign=top;spacingLeft=4;spacingRight=4;overflow=hidden;rotatable=0;points=[[0,0.5],[1,0.5]];portConstraint=eastwest;whiteSpace=wrap;html=1;" parent="yDijstEZP9wWc468jZzv-47" vertex="1">
          <mxGeometry y="26" width="320" height="164" as="geometry" />
        </mxCell>
        <mxCell id="yDijstEZP9wWc468jZzv-49" value="" style="line;strokeWidth=1;fillColor=none;align=left;verticalAlign=middle;spacingTop=-1;spacingLeft=3;spacingRight=3;rotatable=0;labelPosition=right;points=[];portConstraint=eastwest;strokeColor=inherit;" parent="yDijstEZP9wWc468jZzv-47" vertex="1">
          <mxGeometry y="190" width="320" height="8" as="geometry" />
        </mxCell>
        <mxCell id="yDijstEZP9wWc468jZzv-50" value="&lt;p style=&quot;margin: 0px 0px 0px 4px; line-height: 1.6;&quot;&gt;&lt;span style=&quot;font-size: 14px; text-wrap: nowrap;&quot;&gt;- checkRequirementPlacement(Side): boolean&lt;/span&gt;&lt;/p&gt;&lt;p style=&quot;margin: 0px 0px 0px 4px; line-height: 1.6;&quot;&gt;&lt;span style=&quot;font-size: 14px; text-wrap: nowrap;&quot;&gt;- checkBottomLeftConnection(int, int): boolean&lt;/span&gt;&lt;/p&gt;&lt;p style=&quot;margin: 0px 0px 0px 4px; line-height: 1.6;&quot;&gt;&lt;span style=&quot;font-size: 14px; text-wrap: nowrap;&quot;&gt;- checkPreviousCardConnection(int, int): boolean&lt;/span&gt;&lt;/p&gt;&lt;p style=&quot;margin: 0px 0px 0px 4px; line-height: 1.6;&quot;&gt;&lt;span style=&quot;font-size: 14px; text-wrap: nowrap;&quot;&gt;- calculatePointCodex(Game, Side): void&lt;/span&gt;&lt;/p&gt;&lt;p style=&quot;margin: 0px 0px 0px 4px; line-height: 1.6;&quot;&gt;&lt;span style=&quot;font-size: 14px; text-wrap: nowrap;&quot;&gt;- insertSide(Side, int, int): void&lt;/span&gt;&lt;/p&gt;&lt;p style=&quot;margin: 0px 0px 0px 4px; line-height: 1.6;&quot;&gt;&lt;span style=&quot;font-size: 14px; text-wrap: nowrap;&quot;&gt;- downgradeCounterCodex(Value): void&lt;/span&gt;&lt;/p&gt;&lt;p style=&quot;margin: 0px 0px 0px 4px; line-height: 1.6;&quot;&gt;&lt;span style=&quot;font-size: 14px; text-wrap: nowrap;&quot;&gt;- updateCounterCodex(Side): void&lt;/span&gt;&lt;/p&gt;&lt;p style=&quot;margin: 0px 0px 0px 4px; line-height: 1.6;&quot;&gt;&lt;span style=&quot;font-size: 14px; text-wrap: nowrap;&quot;&gt;+ insertIntoCodex(Game, Side, int, int): boolean&lt;/span&gt;&lt;/p&gt;&lt;p style=&quot;margin: 0px 0px 0px 4px; line-height: 1.6;&quot;&gt;&lt;span style=&quot;font-size: 14px; text-wrap: nowrap;&quot;&gt;- checkTopLeftConnection(int, int): boolean&lt;/span&gt;&lt;/p&gt;&lt;p style=&quot;margin: 0px 0px 0px 4px; line-height: 1.6;&quot;&gt;&lt;span style=&quot;font-size: 14px; text-wrap: nowrap;&quot;&gt;- checkBottomRightConnection(int, int): boolean&lt;/span&gt;&lt;/p&gt;&lt;p style=&quot;margin: 0px 0px 0px 4px; line-height: 1.6;&quot;&gt;&lt;span style=&quot;font-size: 14px; text-wrap: nowrap;&quot;&gt;- upgradeCounterCodex(Value): void&lt;/span&gt;&lt;/p&gt;&lt;p style=&quot;margin: 0px 0px 0px 4px; line-height: 1.6;&quot;&gt;&lt;span style=&quot;font-size: 14px; text-wrap: nowrap;&quot;&gt;+ simulateInsertIntoCodex(Side, int, int): boolean&lt;/span&gt;&lt;/p&gt;&lt;p style=&quot;margin: 0px 0px 0px 4px; line-height: 1.6;&quot;&gt;&lt;span style=&quot;font-size: 14px; text-wrap: nowrap;&quot;&gt;- checkPreviousCardNULL(int, int): boolean&lt;/span&gt;&lt;/p&gt;&lt;p style=&quot;margin: 0px 0px 0px 4px; line-height: 1.6;&quot;&gt;&lt;span style=&quot;font-size: 14px; text-wrap: nowrap;&quot;&gt;+ insertStarterIntoCodex(Side, Game, String): void&lt;/span&gt;&lt;/p&gt;&lt;p style=&quot;margin: 0px 0px 0px 4px; line-height: 1.6;&quot;&gt;&lt;span style=&quot;font-size: 14px; text-wrap: nowrap;&quot;&gt;+ getSideAt(int, int): Side&lt;/span&gt;&lt;/p&gt;&lt;p style=&quot;margin: 0px 0px 0px 4px; line-height: 1.6;&quot;&gt;&lt;span style=&quot;font-size: 14px; text-wrap: nowrap;&quot;&gt;- checkTopRightConnection(int, int): boolean&lt;/span&gt;&lt;/p&gt;" style="text;strokeColor=none;fillColor=none;align=left;verticalAlign=top;spacingLeft=4;spacingRight=4;overflow=hidden;rotatable=0;points=[[0,0.5],[1,0.5]];portConstraint=eastwest;whiteSpace=wrap;html=1;" parent="yDijstEZP9wWc468jZzv-47" vertex="1">
          <mxGeometry y="198" width="320" height="372" as="geometry" />
        </mxCell>
        <mxCell id="yDijstEZP9wWc468jZzv-54" style="edgeStyle=orthogonalEdgeStyle;rounded=0;orthogonalLoop=1;jettySize=auto;html=1;" parent="1" source="yDijstEZP9wWc468jZzv-24" target="yDijstEZP9wWc468jZzv-50" edge="1">
          <mxGeometry relative="1" as="geometry" />
        </mxCell>
        <mxCell id="yDijstEZP9wWc468jZzv-56" value="Desk" style="swimlane;fontStyle=1;align=center;verticalAlign=top;childLayout=stackLayout;horizontal=1;startSize=26;horizontalStack=0;resizeParent=1;resizeParentMax=0;resizeLast=0;collapsible=1;marginBottom=0;whiteSpace=wrap;html=1;" parent="1" vertex="1">
          <mxGeometry x="-50" y="668" width="300" height="320" as="geometry" />
        </mxCell>
        <mxCell id="yDijstEZP9wWc468jZzv-57" value="&lt;span style=&quot;text-wrap: nowrap; font-size: 14px;&quot;&gt;deckGold: ArrayList&amp;lt;CardGold&amp;gt;&lt;/span&gt;&lt;br style=&quot;text-wrap: nowrap; font-size: 14px;&quot;&gt;&lt;span style=&quot;text-wrap: nowrap; font-size: 14px;&quot;&gt;displayedObjective: ArrayList&amp;lt;CardObjective&amp;gt;&lt;/span&gt;&lt;br style=&quot;text-wrap: nowrap; font-size: 14px;&quot;&gt;&lt;span style=&quot;text-wrap: nowrap; font-size: 14px;&quot;&gt;deckStarter: ArrayList&amp;lt;CardStarter&amp;gt;&lt;/span&gt;&lt;br style=&quot;text-wrap: nowrap; font-size: 14px;&quot;&gt;&lt;span style=&quot;text-wrap: nowrap; font-size: 14px;&quot;&gt;deckResource: ArrayList&amp;lt;CardResource&amp;gt;&lt;/span&gt;&lt;br style=&quot;text-wrap: nowrap; font-size: 14px;&quot;&gt;&lt;span style=&quot;text-wrap: nowrap; font-size: 14px;&quot;&gt;deckObjective: ArrayList&amp;lt;CardObjective&amp;gt;&lt;/span&gt;&lt;br style=&quot;text-wrap: nowrap; font-size: 14px;&quot;&gt;&lt;span style=&quot;text-wrap: nowrap; font-size: 14px;&quot;&gt;displayedGold: ArrayList&amp;lt;Card&amp;gt;&lt;/span&gt;&lt;br style=&quot;text-wrap: nowrap; font-size: 14px;&quot;&gt;&lt;span style=&quot;text-wrap: nowrap; font-size: 14px;&quot;&gt;displayedResource: ArrayList&amp;lt;Card&amp;gt;&lt;/span&gt;" style="text;strokeColor=none;fillColor=none;align=left;verticalAlign=top;spacingLeft=4;spacingRight=4;overflow=hidden;rotatable=0;points=[[0,0.5],[1,0.5]];portConstraint=eastwest;whiteSpace=wrap;html=1;" parent="yDijstEZP9wWc468jZzv-56" vertex="1">
          <mxGeometry y="26" width="300" height="134" as="geometry" />
        </mxCell>
        <mxCell id="yDijstEZP9wWc468jZzv-58" value="" style="line;strokeWidth=1;fillColor=none;align=left;verticalAlign=middle;spacingTop=-1;spacingLeft=3;spacingRight=3;rotatable=0;labelPosition=right;points=[];portConstraint=eastwest;strokeColor=inherit;" parent="yDijstEZP9wWc468jZzv-56" vertex="1">
          <mxGeometry y="160" width="300" height="8" as="geometry" />
        </mxCell>
        <mxCell id="yDijstEZP9wWc468jZzv-59" value="&lt;div&gt;&lt;span style=&quot;font-size: 14px; text-wrap: nowrap;&quot;&gt;- createDeckGold(): boolean&lt;/span&gt;&lt;/div&gt;&lt;div&gt;&lt;span style=&quot;font-size: 14px; text-wrap: nowrap;&quot;&gt;+ drawCardDeck(DeckType): Card&lt;/span&gt;&lt;/div&gt;&lt;div&gt;&lt;span style=&quot;font-size: 14px; text-wrap: nowrap;&quot;&gt;- initializeDisplayedCard(): void&lt;/span&gt;&lt;/div&gt;&lt;div&gt;&lt;span style=&quot;font-size: 14px; text-wrap: nowrap;&quot;&gt;- checkDisplayed(): void&lt;/span&gt;&lt;/div&gt;&lt;div&gt;&lt;span style=&quot;font-size: 14px; text-wrap: nowrap;&quot;&gt;- createDeckStarter(): boolean&lt;/span&gt;&lt;/div&gt;&lt;div&gt;&lt;span style=&quot;font-size: 14px; text-wrap: nowrap;&quot;&gt;- createDeckResource(): boolean&lt;/span&gt;&lt;/div&gt;&lt;div&gt;&lt;span style=&quot;font-size: 14px; text-wrap: nowrap;&quot;&gt;- createDeckObjective(): boolean&lt;/span&gt;&lt;/div&gt;&lt;div&gt;&lt;span style=&quot;font-size: 14px; text-wrap: nowrap;&quot;&gt;+ drawCardDisplayed(DeckType, int): Card&lt;/span&gt;&lt;/div&gt;" style="text;strokeColor=none;fillColor=none;align=left;verticalAlign=top;spacingLeft=4;spacingRight=4;overflow=hidden;rotatable=0;points=[[0,0.5],[1,0.5]];portConstraint=eastwest;whiteSpace=wrap;html=1;" parent="yDijstEZP9wWc468jZzv-56" vertex="1">
          <mxGeometry y="168" width="300" height="152" as="geometry" />
        </mxCell>
        <mxCell id="yDijstEZP9wWc468jZzv-60" style="edgeStyle=orthogonalEdgeStyle;rounded=0;orthogonalLoop=1;jettySize=auto;html=1;" parent="1" source="yDijstEZP9wWc468jZzv-4" target="yDijstEZP9wWc468jZzv-56" edge="1">
          <mxGeometry relative="1" as="geometry" />
        </mxCell>
        <mxCell id="yDijstEZP9wWc468jZzv-87" style="edgeStyle=orthogonalEdgeStyle;rounded=0;orthogonalLoop=1;jettySize=auto;html=1;endArrow=none;endFill=0;exitX=0.25;exitY=0;exitDx=0;exitDy=0;startArrow=classic;startFill=1;" parent="1" source="yDijstEZP9wWc468jZzv-65" target="yDijstEZP9wWc468jZzv-59" edge="1">
          <mxGeometry relative="1" as="geometry" />
        </mxCell>
        <mxCell id="yDijstEZP9wWc468jZzv-62" value="card" style="shape=umlFrame;whiteSpace=wrap;html=1;pointerEvents=0;fillColor=#d5e8d4;strokeColor=#82b366;" parent="1" vertex="1">
          <mxGeometry x="280" y="990" width="2120" height="770" as="geometry" />
        </mxCell>
        <mxCell id="yDijstEZP9wWc468jZzv-64" value="cardObjective" style="shape=umlFrame;whiteSpace=wrap;html=1;pointerEvents=0;fillColor=#e1d5e7;strokeColor=#9673a6;width=90;height=30;" parent="1" vertex="1">
          <mxGeometry x="950" y="1010" width="1440" height="730" as="geometry" />
        </mxCell>
        <mxCell id="yDijstEZP9wWc468jZzv-65" value="Card" style="swimlane;fontStyle=1;align=center;verticalAlign=top;childLayout=stackLayout;horizontal=1;startSize=26;horizontalStack=0;resizeParent=1;resizeParentMax=0;resizeLast=0;collapsible=1;marginBottom=0;whiteSpace=wrap;html=1;" parent="1" vertex="1">
          <mxGeometry x="500" y="1040" width="150" height="90" as="geometry" />
        </mxCell>
        <mxCell id="6hzLT0k25RyZsXePGHMC-19" value="&lt;span style=&quot;font-size: 14px; text-align: left;&quot;&gt;idCard: String&lt;/span&gt;&lt;br style=&quot;font-size: 14px; text-align: left;&quot;&gt;&lt;span style=&quot;font-size: 14px; text-align: left;&quot;&gt;playable: boolean&lt;/span&gt;" style="text;html=1;align=center;verticalAlign=middle;resizable=0;points=[];autosize=1;strokeColor=none;fillColor=none;" parent="yDijstEZP9wWc468jZzv-65" vertex="1">
          <mxGeometry y="26" width="150" height="50" as="geometry" />
        </mxCell>
        <mxCell id="yDijstEZP9wWc468jZzv-67" value="" style="line;strokeWidth=1;fillColor=none;align=left;verticalAlign=middle;spacingTop=-1;spacingLeft=3;spacingRight=3;rotatable=0;labelPosition=right;points=[];portConstraint=eastwest;strokeColor=inherit;" parent="yDijstEZP9wWc468jZzv-65" vertex="1">
          <mxGeometry y="76" width="150" height="14" as="geometry" />
        </mxCell>
        <mxCell id="yDijstEZP9wWc468jZzv-80" style="edgeStyle=orthogonalEdgeStyle;rounded=0;orthogonalLoop=1;jettySize=auto;html=1;endArrow=block;endFill=0;entryX=0.005;entryY=0.803;entryDx=0;entryDy=0;entryPerimeter=0;exitX=0.5;exitY=0;exitDx=0;exitDy=0;" parent="1" source="yDijstEZP9wWc468jZzv-69" target="6hzLT0k25RyZsXePGHMC-19" edge="1">
          <mxGeometry relative="1" as="geometry">
            <mxPoint x="500" y="1202.0285714285715" as="targetPoint" />
          </mxGeometry>
        </mxCell>
        <mxCell id="6hzLT0k25RyZsXePGHMC-62" style="edgeStyle=orthogonalEdgeStyle;rounded=0;orthogonalLoop=1;jettySize=auto;html=1;entryX=0.5;entryY=1;entryDx=0;entryDy=0;exitX=0.5;exitY=1;exitDx=0;exitDy=0;" parent="1" source="yDijstEZP9wWc468jZzv-69" target="yDijstEZP9wWc468jZzv-137" edge="1">
          <mxGeometry relative="1" as="geometry">
            <Array as="points">
              <mxPoint x="378" y="1360" />
              <mxPoint x="-820" y="1360" />
              <mxPoint x="-820" y="-280" />
              <mxPoint x="2550" y="-280" />
              <mxPoint x="2550" y="790" />
              <mxPoint x="2099" y="790" />
            </Array>
          </mxGeometry>
        </mxCell>
        <mxCell id="yDijstEZP9wWc468jZzv-69" value="CardGold" style="swimlane;fontStyle=1;align=center;verticalAlign=top;childLayout=stackLayout;horizontal=1;startSize=26;horizontalStack=0;resizeParent=1;resizeParentMax=0;resizeLast=0;collapsible=1;marginBottom=0;whiteSpace=wrap;html=1;" parent="1" vertex="1">
          <mxGeometry x="300" y="1221" width="155" height="100" as="geometry" />
        </mxCell>
        <mxCell id="6hzLT0k25RyZsXePGHMC-4" value="&lt;span style=&quot;font-size: 14px;&quot;&gt;&amp;nbsp;backGold: BackGold&lt;/span&gt;&lt;br style=&quot;font-size: 14px;&quot;&gt;&lt;span style=&quot;font-size: 14px;&quot;&gt;&amp;nbsp;frontGold: FrontGold&lt;/span&gt;&lt;br style=&quot;font-size: 14px;&quot;&gt;&lt;span style=&quot;font-size: 14px;&quot;&gt;&amp;nbsp;kingdom: Kingdom&lt;/span&gt;" style="text;html=1;align=left;verticalAlign=middle;resizable=0;points=[];autosize=1;strokeColor=none;fillColor=none;" parent="yDijstEZP9wWc468jZzv-69" vertex="1">
          <mxGeometry y="26" width="155" height="60" as="geometry" />
        </mxCell>
        <mxCell id="yDijstEZP9wWc468jZzv-70" value="" style="line;strokeWidth=1;fillColor=none;align=left;verticalAlign=middle;spacingTop=-1;spacingLeft=3;spacingRight=3;rotatable=0;labelPosition=right;points=[];portConstraint=eastwest;strokeColor=inherit;" parent="yDijstEZP9wWc468jZzv-69" vertex="1">
          <mxGeometry y="86" width="155" height="14" as="geometry" />
        </mxCell>
        <mxCell id="yDijstEZP9wWc468jZzv-81" style="edgeStyle=orthogonalEdgeStyle;rounded=0;orthogonalLoop=1;jettySize=auto;html=1;endArrow=block;endFill=0;entryX=0.5;entryY=1;entryDx=0;entryDy=0;" parent="1" source="6hzLT0k25RyZsXePGHMC-5" target="yDijstEZP9wWc468jZzv-65" edge="1">
          <mxGeometry relative="1" as="geometry">
            <mxPoint x="575" y="1221" as="sourcePoint" />
            <mxPoint x="575" y="1180" as="targetPoint" />
          </mxGeometry>
        </mxCell>
        <mxCell id="yDijstEZP9wWc468jZzv-82" style="edgeStyle=orthogonalEdgeStyle;rounded=0;orthogonalLoop=1;jettySize=auto;html=1;endArrow=block;endFill=0;exitX=0.5;exitY=0;exitDx=0;exitDy=0;entryX=1;entryY=0.074;entryDx=0;entryDy=0;entryPerimeter=0;" parent="1" source="6hzLT0k25RyZsXePGHMC-8" target="yDijstEZP9wWc468jZzv-65" edge="1">
          <mxGeometry relative="1" as="geometry">
            <mxPoint x="792.5" y="1221" as="sourcePoint" />
            <mxPoint x="650" y="1202.0285714285715" as="targetPoint" />
          </mxGeometry>
        </mxCell>
        <mxCell id="yDijstEZP9wWc468jZzv-88" style="edgeStyle=orthogonalEdgeStyle;rounded=0;orthogonalLoop=1;jettySize=auto;html=1;entryX=0.734;entryY=1;entryDx=0;entryDy=0;entryPerimeter=0;endArrow=none;endFill=0;startArrow=classic;startFill=1;" parent="1" source="yDijstEZP9wWc468jZzv-89" target="yDijstEZP9wWc468jZzv-27" edge="1">
          <mxGeometry relative="1" as="geometry" />
        </mxCell>
        <mxCell id="AbGZBc_8qBiP8k0FSkji-1" style="edgeStyle=orthogonalEdgeStyle;rounded=0;orthogonalLoop=1;jettySize=auto;html=1;entryX=0.75;entryY=0;entryDx=0;entryDy=0;endArrow=block;endFill=0;" parent="1" source="yDijstEZP9wWc468jZzv-89" target="yDijstEZP9wWc468jZzv-65" edge="1">
          <mxGeometry relative="1" as="geometry">
            <Array as="points">
              <mxPoint x="890" y="1145" />
              <mxPoint x="890" y="1020" />
              <mxPoint x="612" y="1020" />
            </Array>
          </mxGeometry>
        </mxCell>
        <mxCell id="yDijstEZP9wWc468jZzv-89" value="CardObjective" style="swimlane;fontStyle=1;align=center;verticalAlign=top;childLayout=stackLayout;horizontal=1;startSize=26;horizontalStack=0;resizeParent=1;resizeParentMax=0;resizeLast=0;collapsible=1;marginBottom=0;whiteSpace=wrap;html=1;" parent="1" vertex="1">
          <mxGeometry x="1520" y="1060" width="300" height="170" as="geometry" />
        </mxCell>
        <mxCell id="yDijstEZP9wWc468jZzv-90" value="&lt;div&gt;&lt;div style=&quot;&quot;&gt;&lt;span style=&quot;font-size: 14px; text-wrap: nowrap;&quot;&gt;point: int&lt;/span&gt;&lt;/div&gt;&lt;div style=&quot;&quot;&gt;&lt;span style=&quot;font-size: 14px; text-wrap: nowrap;&quot;&gt;image: String&lt;/span&gt;&lt;/div&gt;&lt;div style=&quot;&quot;&gt;&lt;span style=&quot;font-size: 14px; text-wrap: nowrap;&quot;&gt;scoreStrategy: CalculateScoreStrategy&lt;/span&gt;&lt;/div&gt;&lt;div style=&quot;&quot;&gt;&lt;span style=&quot;font-size: 14px; text-wrap: nowrap;&quot;&gt;objective: String&lt;/span&gt;&lt;/div&gt;&lt;div style=&quot;&quot;&gt;&lt;span style=&quot;font-size: 14px; text-wrap: nowrap;&quot;&gt;parameters: ArrayList&amp;lt;Value&amp;gt;&lt;/span&gt;&lt;/div&gt;&lt;/div&gt;" style="text;strokeColor=none;fillColor=none;align=left;verticalAlign=top;spacingLeft=4;spacingRight=4;overflow=hidden;rotatable=0;points=[[0,0.5],[1,0.5]];portConstraint=eastwest;whiteSpace=wrap;html=1;" parent="yDijstEZP9wWc468jZzv-89" vertex="1">
          <mxGeometry y="26" width="300" height="104" as="geometry" />
        </mxCell>
        <mxCell id="yDijstEZP9wWc468jZzv-91" value="" style="line;strokeWidth=1;fillColor=none;align=left;verticalAlign=middle;spacingTop=-1;spacingLeft=3;spacingRight=3;rotatable=0;labelPosition=right;points=[];portConstraint=eastwest;strokeColor=inherit;" parent="yDijstEZP9wWc468jZzv-89" vertex="1">
          <mxGeometry y="130" width="300" height="8" as="geometry" />
        </mxCell>
        <mxCell id="yDijstEZP9wWc468jZzv-92" value="&lt;div&gt;&lt;span style=&quot;font-size: 14px; text-wrap: nowrap;&quot;&gt;+ calculateScore(Codex, int, ArrayList&amp;lt;Value&amp;gt;): int&lt;/span&gt;&lt;/div&gt;&lt;div&gt;&lt;br&gt;&lt;/div&gt;" style="text;strokeColor=none;fillColor=none;align=left;verticalAlign=top;spacingLeft=4;spacingRight=4;overflow=hidden;rotatable=0;points=[[0,0.5],[1,0.5]];portConstraint=eastwest;whiteSpace=wrap;html=1;" parent="yDijstEZP9wWc468jZzv-89" vertex="1">
          <mxGeometry y="138" width="300" height="32" as="geometry" />
        </mxCell>
        <mxCell id="yDijstEZP9wWc468jZzv-97" value="&lt;p style=&quot;margin:0px;margin-top:4px;text-align:center;&quot;&gt;&lt;i&gt;&amp;lt;&amp;lt;Interface&amp;gt;&amp;gt;&lt;/i&gt;&lt;br&gt;&lt;b style=&quot;font-size: 14px; text-wrap: nowrap;&quot;&gt;CalculateScoreStrategy&lt;/b&gt;&lt;br&gt;&lt;/p&gt;&lt;hr size=&quot;1&quot; style=&quot;border-style:solid;&quot;&gt;&lt;p style=&quot;margin:0px;margin-left:4px;&quot;&gt;&lt;span style=&quot;font-size: 14px; text-wrap: nowrap; background-color: initial;&quot;&gt;+ calculateScore(Codex, int, ArrayList&amp;lt;Value&amp;gt;): int&lt;/span&gt;&lt;br&gt;&lt;/p&gt;" style="verticalAlign=top;align=left;overflow=fill;html=1;whiteSpace=wrap;" parent="1" vertex="1">
          <mxGeometry x="1502.5" y="1270" width="335" height="80" as="geometry" />
        </mxCell>
        <mxCell id="yDijstEZP9wWc468jZzv-98" style="edgeStyle=orthogonalEdgeStyle;rounded=0;orthogonalLoop=1;jettySize=auto;html=1;entryX=0.5;entryY=0.996;entryDx=0;entryDy=0;entryPerimeter=0;endArrow=open;endFill=0;" parent="1" source="yDijstEZP9wWc468jZzv-97" target="yDijstEZP9wWc468jZzv-92" edge="1">
          <mxGeometry relative="1" as="geometry" />
        </mxCell>
        <mxCell id="yDijstEZP9wWc468jZzv-103" style="edgeStyle=orthogonalEdgeStyle;rounded=0;orthogonalLoop=1;jettySize=auto;html=1;entryX=0;entryY=0.25;entryDx=0;entryDy=0;exitX=0.5;exitY=0;exitDx=0;exitDy=0;endArrow=block;endFill=0;" parent="1" source="yDijstEZP9wWc468jZzv-99" target="yDijstEZP9wWc468jZzv-97" edge="1">
          <mxGeometry relative="1" as="geometry" />
        </mxCell>
        <mxCell id="yDijstEZP9wWc468jZzv-99" value="MainDiagonalStrategy" style="swimlane;fontStyle=1;align=center;verticalAlign=top;childLayout=stackLayout;horizontal=1;startSize=26;horizontalStack=0;resizeParent=1;resizeParentMax=0;resizeLast=0;collapsible=1;marginBottom=0;whiteSpace=wrap;html=1;" parent="1" vertex="1">
          <mxGeometry x="966" y="1430" width="328" height="60" as="geometry" />
        </mxCell>
        <mxCell id="yDijstEZP9wWc468jZzv-100" value="&lt;span style=&quot;font-size: 14px; text-wrap: nowrap;&quot;&gt;+ calculateScore(Codex, int, ArrayList&amp;lt;Value&amp;gt;): int&lt;/span&gt;" style="text;strokeColor=none;fillColor=none;align=left;verticalAlign=top;spacingLeft=4;spacingRight=4;overflow=hidden;rotatable=0;points=[[0,0.5],[1,0.5]];portConstraint=eastwest;whiteSpace=wrap;html=1;" parent="yDijstEZP9wWc468jZzv-99" vertex="1">
          <mxGeometry y="26" width="328" height="34" as="geometry" />
        </mxCell>
        <mxCell id="yDijstEZP9wWc468jZzv-122" style="edgeStyle=orthogonalEdgeStyle;rounded=0;orthogonalLoop=1;jettySize=auto;html=1;entryX=0.25;entryY=1;entryDx=0;entryDy=0;exitX=0.597;exitY=-0.007;exitDx=0;exitDy=0;exitPerimeter=0;endArrow=block;endFill=0;" parent="1" source="yDijstEZP9wWc468jZzv-104" target="yDijstEZP9wWc468jZzv-97" edge="1">
          <mxGeometry relative="1" as="geometry" />
        </mxCell>
        <mxCell id="yDijstEZP9wWc468jZzv-104" value="PileTopLeftStrategy" style="swimlane;fontStyle=1;align=center;verticalAlign=top;childLayout=stackLayout;horizontal=1;startSize=26;horizontalStack=0;resizeParent=1;resizeParentMax=0;resizeLast=0;collapsible=1;marginBottom=0;whiteSpace=wrap;html=1;" parent="1" vertex="1">
          <mxGeometry x="1330" y="1430" width="330" height="60" as="geometry" />
        </mxCell>
        <mxCell id="yDijstEZP9wWc468jZzv-105" value="&lt;span style=&quot;font-size: 14px; text-wrap: nowrap;&quot;&gt;+ calculateScore(Codex, int, ArrayList&amp;lt;Value&amp;gt;): int&lt;/span&gt;&lt;br&gt;&lt;div&gt;&lt;span style=&quot;font-size: 14px; text-wrap: nowrap;&quot;&gt;&lt;br&gt;&lt;/span&gt;&lt;/div&gt;" style="text;strokeColor=none;fillColor=none;align=left;verticalAlign=top;spacingLeft=4;spacingRight=4;overflow=hidden;rotatable=0;points=[[0,0.5],[1,0.5]];portConstraint=eastwest;whiteSpace=wrap;html=1;" parent="yDijstEZP9wWc468jZzv-104" vertex="1">
          <mxGeometry y="26" width="330" height="34" as="geometry" />
        </mxCell>
        <mxCell id="yDijstEZP9wWc468jZzv-123" style="edgeStyle=orthogonalEdgeStyle;rounded=0;orthogonalLoop=1;jettySize=auto;html=1;endArrow=block;endFill=0;" parent="1" source="yDijstEZP9wWc468jZzv-107" target="yDijstEZP9wWc468jZzv-97" edge="1">
          <mxGeometry relative="1" as="geometry">
            <Array as="points">
              <mxPoint x="1800" y="1410" />
              <mxPoint x="1800" y="1410" />
            </Array>
          </mxGeometry>
        </mxCell>
        <mxCell id="yDijstEZP9wWc468jZzv-107" value="PileBottomLeftStrategy" style="swimlane;fontStyle=1;align=center;verticalAlign=top;childLayout=stackLayout;horizontal=1;startSize=26;horizontalStack=0;resizeParent=1;resizeParentMax=0;resizeLast=0;collapsible=1;marginBottom=0;whiteSpace=wrap;html=1;" parent="1" vertex="1">
          <mxGeometry x="1690" y="1430" width="330" height="60" as="geometry" />
        </mxCell>
        <mxCell id="yDijstEZP9wWc468jZzv-108" value="&lt;span style=&quot;font-size: 14px; text-wrap: nowrap;&quot;&gt;+ calculateScore(Codex, int, ArrayList&amp;lt;Value&amp;gt;): int&lt;/span&gt;&lt;br&gt;&lt;div&gt;&lt;span style=&quot;font-size: 14px; text-wrap: nowrap;&quot;&gt;&lt;br&gt;&lt;/span&gt;&lt;/div&gt;" style="text;strokeColor=none;fillColor=none;align=left;verticalAlign=top;spacingLeft=4;spacingRight=4;overflow=hidden;rotatable=0;points=[[0,0.5],[1,0.5]];portConstraint=eastwest;whiteSpace=wrap;html=1;" parent="yDijstEZP9wWc468jZzv-107" vertex="1">
          <mxGeometry y="26" width="330" height="34" as="geometry" />
        </mxCell>
        <mxCell id="yDijstEZP9wWc468jZzv-110" value="SecondDiagonalStrategy" style="swimlane;fontStyle=1;align=center;verticalAlign=top;childLayout=stackLayout;horizontal=1;startSize=26;horizontalStack=0;resizeParent=1;resizeParentMax=0;resizeLast=0;collapsible=1;marginBottom=0;whiteSpace=wrap;html=1;" parent="1" vertex="1">
          <mxGeometry x="1090" y="1550" width="300" height="60" as="geometry" />
        </mxCell>
        <mxCell id="yDijstEZP9wWc468jZzv-111" value="&lt;span style=&quot;font-size: 14px; text-wrap: nowrap;&quot;&gt;+ calculateScore(Codex, int, ArrayList&amp;lt;Value&amp;gt;): int&lt;/span&gt;&lt;br&gt;&lt;div&gt;&lt;span style=&quot;font-size: 14px; text-wrap: nowrap;&quot;&gt;&lt;br&gt;&lt;/span&gt;&lt;/div&gt;" style="text;strokeColor=none;fillColor=none;align=left;verticalAlign=top;spacingLeft=4;spacingRight=4;overflow=hidden;rotatable=0;points=[[0,0.5],[1,0.5]];portConstraint=eastwest;whiteSpace=wrap;html=1;" parent="yDijstEZP9wWc468jZzv-110" vertex="1">
          <mxGeometry y="26" width="300" height="34" as="geometry" />
        </mxCell>
        <mxCell id="yDijstEZP9wWc468jZzv-128" style="edgeStyle=orthogonalEdgeStyle;rounded=0;orthogonalLoop=1;jettySize=auto;html=1;exitX=0.651;exitY=0.02;exitDx=0;exitDy=0;exitPerimeter=0;endArrow=block;endFill=0;" parent="1" source="yDijstEZP9wWc468jZzv-113" target="yDijstEZP9wWc468jZzv-97" edge="1">
          <mxGeometry relative="1" as="geometry">
            <Array as="points">
              <mxPoint x="1670" y="1551" />
            </Array>
          </mxGeometry>
        </mxCell>
        <mxCell id="yDijstEZP9wWc468jZzv-113" value="PileTopRightStrategy" style="swimlane;fontStyle=1;align=center;verticalAlign=top;childLayout=stackLayout;horizontal=1;startSize=26;horizontalStack=0;resizeParent=1;resizeParentMax=0;resizeLast=0;collapsible=1;marginBottom=0;whiteSpace=wrap;html=1;" parent="1" vertex="1">
          <mxGeometry x="1460" y="1550" width="300" height="60" as="geometry" />
        </mxCell>
        <mxCell id="yDijstEZP9wWc468jZzv-114" value="&lt;span style=&quot;font-size: 14px; text-wrap: nowrap;&quot;&gt;+ calculateScore(Codex, int, ArrayList&amp;lt;Value&amp;gt;): int&lt;/span&gt;&lt;br&gt;&lt;div&gt;&lt;span style=&quot;font-size: 14px; text-wrap: nowrap;&quot;&gt;&lt;br&gt;&lt;/span&gt;&lt;/div&gt;" style="text;strokeColor=none;fillColor=none;align=left;verticalAlign=top;spacingLeft=4;spacingRight=4;overflow=hidden;rotatable=0;points=[[0,0.5],[1,0.5]];portConstraint=eastwest;whiteSpace=wrap;html=1;" parent="yDijstEZP9wWc468jZzv-113" vertex="1">
          <mxGeometry y="26" width="300" height="34" as="geometry" />
        </mxCell>
        <mxCell id="yDijstEZP9wWc468jZzv-129" style="edgeStyle=orthogonalEdgeStyle;rounded=0;orthogonalLoop=1;jettySize=auto;html=1;entryX=1;entryY=0.75;entryDx=0;entryDy=0;exitX=0.616;exitY=-0.007;exitDx=0;exitDy=0;exitPerimeter=0;endArrow=block;endFill=0;" parent="1" source="yDijstEZP9wWc468jZzv-116" target="yDijstEZP9wWc468jZzv-97" edge="1">
          <mxGeometry relative="1" as="geometry" />
        </mxCell>
        <mxCell id="yDijstEZP9wWc468jZzv-116" value="PileBottomRightStrategy" style="swimlane;fontStyle=1;align=center;verticalAlign=top;childLayout=stackLayout;horizontal=1;startSize=26;horizontalStack=0;resizeParent=1;resizeParentMax=0;resizeLast=0;collapsible=1;marginBottom=0;whiteSpace=wrap;html=1;" parent="1" vertex="1">
          <mxGeometry x="1865" y="1550" width="300" height="60" as="geometry" />
        </mxCell>
        <mxCell id="yDijstEZP9wWc468jZzv-117" value="&lt;span style=&quot;font-size: 14px; text-wrap: nowrap;&quot;&gt;+ calculateScore(Codex, int, ArrayList&amp;lt;Value&amp;gt;): int&lt;/span&gt;&lt;br&gt;&lt;div&gt;&lt;span style=&quot;font-size: 14px; text-wrap: nowrap;&quot;&gt;&lt;br&gt;&lt;/span&gt;&lt;/div&gt;" style="text;strokeColor=none;fillColor=none;align=left;verticalAlign=top;spacingLeft=4;spacingRight=4;overflow=hidden;rotatable=0;points=[[0,0.5],[1,0.5]];portConstraint=eastwest;whiteSpace=wrap;html=1;" parent="yDijstEZP9wWc468jZzv-116" vertex="1">
          <mxGeometry y="26" width="300" height="34" as="geometry" />
        </mxCell>
        <mxCell id="yDijstEZP9wWc468jZzv-126" style="edgeStyle=orthogonalEdgeStyle;rounded=0;orthogonalLoop=1;jettySize=auto;html=1;entryX=1;entryY=0.25;entryDx=0;entryDy=0;exitX=0.5;exitY=0;exitDx=0;exitDy=0;endArrow=block;endFill=0;" parent="1" source="yDijstEZP9wWc468jZzv-119" target="yDijstEZP9wWc468jZzv-97" edge="1">
          <mxGeometry relative="1" as="geometry" />
        </mxCell>
        <mxCell id="yDijstEZP9wWc468jZzv-119" value="RequirementStrategy" style="swimlane;fontStyle=1;align=center;verticalAlign=top;childLayout=stackLayout;horizontal=1;startSize=26;horizontalStack=0;resizeParent=1;resizeParentMax=0;resizeLast=0;collapsible=1;marginBottom=0;whiteSpace=wrap;html=1;" parent="1" vertex="1">
          <mxGeometry x="2058" y="1430" width="322" height="60" as="geometry" />
        </mxCell>
        <mxCell id="yDijstEZP9wWc468jZzv-120" value="&lt;span style=&quot;font-size: 14px; text-wrap: nowrap;&quot;&gt;+ calculateScore(Codex, int, ArrayList&amp;lt;Value&amp;gt;): int&lt;/span&gt;&lt;br&gt;&lt;div&gt;&lt;span style=&quot;font-size: 14px; text-wrap: nowrap;&quot;&gt;&lt;br&gt;&lt;/span&gt;&lt;/div&gt;" style="text;strokeColor=none;fillColor=none;align=left;verticalAlign=top;spacingLeft=4;spacingRight=4;overflow=hidden;rotatable=0;points=[[0,0.5],[1,0.5]];portConstraint=eastwest;whiteSpace=wrap;html=1;" parent="yDijstEZP9wWc468jZzv-119" vertex="1">
          <mxGeometry y="26" width="322" height="34" as="geometry" />
        </mxCell>
        <mxCell id="yDijstEZP9wWc468jZzv-130" value="enumerations" style="shape=umlFrame;whiteSpace=wrap;html=1;pointerEvents=0;fillColor=#b0e3e6;strokeColor=#0e8088;width=90;height=30;" parent="1" vertex="1">
          <mxGeometry x="1270" y="40" width="1120" height="670" as="geometry" />
        </mxCell>
        <mxCell id="yDijstEZP9wWc468jZzv-135" value="&lt;p style=&quot;margin:0px;margin-top:4px;text-align:center;&quot;&gt;&lt;i&gt;&amp;lt;&amp;lt;enumeration&amp;gt;&amp;gt;&lt;/i&gt;&lt;br&gt;&lt;b&gt;Color&lt;/b&gt;&lt;/p&gt;&lt;p style=&quot;margin:0px;margin-top:4px;text-align:center;&quot;&gt;&lt;b&gt;&lt;br&gt;&lt;/b&gt;&lt;/p&gt;&lt;hr&gt;&amp;nbsp; &amp;nbsp;RED,&lt;div&gt;&amp;nbsp; &amp;nbsp;BLUE,&lt;/div&gt;&lt;div&gt;&amp;nbsp; &amp;nbsp;GREEN,&lt;/div&gt;&lt;div&gt;&amp;nbsp; &amp;nbsp;YELLOW&lt;/div&gt;" style="verticalAlign=top;align=left;overflow=fill;fontSize=14;fontFamily=Helvetica;html=1;rounded=0;shadow=0;comic=0;labelBackgroundColor=none;strokeWidth=1;" parent="1" vertex="1">
          <mxGeometry x="1300" y="86" width="160" height="154" as="geometry" />
        </mxCell>
        <mxCell id="yDijstEZP9wWc468jZzv-136" value="&lt;p style=&quot;margin:0px;margin-top:4px;text-align:center;&quot;&gt;&lt;i&gt;&amp;lt;&amp;lt;enumeration&amp;gt;&amp;gt;&lt;/i&gt;&lt;br&gt;&lt;b&gt;DeckType&lt;/b&gt;&lt;/p&gt;&lt;hr&gt;&amp;nbsp; &amp;nbsp;DISPLAYED_GOLD,&lt;div&gt;&amp;nbsp; &amp;nbsp;DISPLAYED_RESOURCE,&lt;/div&gt;&lt;div&gt;&amp;nbsp; &amp;nbsp;DECK_GOLD,&lt;/div&gt;&lt;div&gt;&amp;nbsp; &amp;nbsp;DECK&lt;span style=&quot;background-color: initial;&quot;&gt;_RESOURCE&lt;/span&gt;&lt;span style=&quot;background-color: initial;&quot;&gt;,&lt;/span&gt;&lt;/div&gt;&lt;div&gt;&amp;nbsp; &amp;nbsp;DECK_STARTER,&lt;/div&gt;&lt;div&gt;&amp;nbsp; &amp;nbsp;DECK_OBJECTIVE&lt;/div&gt;&lt;hr&gt;&lt;p style=&quot;margin:0px;margin-top:4px;text-align:center;&quot;&gt;It is present as an attribute in the various Decks in Desk&lt;br&gt;&lt;/p&gt;" style="verticalAlign=top;align=left;overflow=fill;fontSize=14;fontFamily=Helvetica;html=1;rounded=0;shadow=0;comic=0;labelBackgroundColor=none;strokeWidth=1;" parent="1" vertex="1">
          <mxGeometry x="1510" y="108" width="355" height="194" as="geometry" />
        </mxCell>
        <mxCell id="yDijstEZP9wWc468jZzv-137" value="&lt;p style=&quot;margin:0px;margin-top:4px;text-align:center;&quot;&gt;&lt;i&gt;&amp;lt;&amp;lt;enumeration&amp;gt;&amp;gt;&lt;/i&gt;&lt;br&gt;&lt;b&gt;Kingdom&lt;/b&gt;&lt;/p&gt;&lt;hr&gt;&amp;nbsp; &amp;nbsp;FUNGI,&lt;div&gt;&amp;nbsp; &amp;nbsp;PLANT,&lt;/div&gt;&lt;div&gt;&amp;nbsp; &amp;nbsp;ANIMAL,&lt;/div&gt;&lt;div&gt;&amp;nbsp; &amp;nbsp;INSECT,&lt;/div&gt;&lt;div&gt;&amp;nbsp; &amp;nbsp;NULL&lt;/div&gt;" style="verticalAlign=top;align=left;overflow=fill;fontSize=14;fontFamily=Helvetica;html=1;rounded=0;shadow=0;comic=0;labelBackgroundColor=none;strokeWidth=1;" parent="1" vertex="1">
          <mxGeometry x="1910" y="410" width="377.5" height="150" as="geometry" />
        </mxCell>
        <mxCell id="yDijstEZP9wWc468jZzv-138" value="&lt;p style=&quot;margin:0px;margin-top:4px;text-align:center;&quot;&gt;&lt;i&gt;&amp;lt;&amp;lt;enumeration&amp;gt;&amp;gt;&lt;/i&gt;&lt;br&gt;&lt;b&gt;GameStatus&lt;/b&gt;&lt;/p&gt;&lt;hr&gt;&amp;nbsp; &amp;nbsp;WAITING,&lt;div&gt;&amp;nbsp; &amp;nbsp;STARTING,&lt;/div&gt;&lt;div&gt;&amp;nbsp; &amp;nbsp;RUNNING,&lt;/div&gt;&lt;div&gt;&amp;nbsp; &amp;nbsp;HALTED,&lt;/div&gt;&lt;div&gt;&amp;nbsp; &amp;nbsp;ENDING,&lt;/div&gt;&lt;div&gt;&amp;nbsp; &amp;nbsp;LASTROUND,&lt;/div&gt;&lt;div&gt;&amp;nbsp; &amp;nbsp;ENDED&lt;/div&gt;" style="verticalAlign=top;align=left;overflow=fill;fontSize=14;fontFamily=Helvetica;html=1;rounded=0;shadow=0;comic=0;labelBackgroundColor=none;strokeWidth=1;" parent="1" vertex="1">
          <mxGeometry x="1300" y="330" width="160" height="180" as="geometry" />
        </mxCell>
        <mxCell id="yDijstEZP9wWc468jZzv-139" value="&lt;p style=&quot;margin:0px;margin-top:4px;text-align:center;&quot;&gt;&lt;i&gt;&amp;lt;&amp;lt;enumeration&amp;gt;&amp;gt;&lt;/i&gt;&lt;br&gt;&lt;b&gt;PlayerAction&lt;/b&gt;&lt;/p&gt;&lt;hr&gt;&amp;nbsp; &amp;nbsp;FIRSTMOVES,&lt;div&gt;&amp;nbsp; &amp;nbsp;WAIT,&lt;/div&gt;&lt;div&gt;&amp;nbsp; &amp;nbsp;PLACE,&lt;/div&gt;&lt;div&gt;&amp;nbsp; &amp;nbsp;DRAW,&lt;/div&gt;&lt;div&gt;&amp;nbsp; &amp;nbsp;DISCONNECTED,&lt;/div&gt;&lt;div&gt;&amp;nbsp; &amp;nbsp;ENDED&lt;/div&gt;" style="verticalAlign=top;align=left;overflow=fill;fontSize=14;fontFamily=Helvetica;html=1;rounded=0;shadow=0;comic=0;labelBackgroundColor=none;strokeWidth=1;" parent="1" vertex="1">
          <mxGeometry x="1500" y="520" width="160" height="164" as="geometry" />
        </mxCell>
        <mxCell id="yDijstEZP9wWc468jZzv-140" value="&lt;p style=&quot;margin:0px;margin-top:4px;text-align:center;&quot;&gt;&lt;i&gt;&amp;lt;&amp;lt;enumeration&amp;gt;&amp;gt;&lt;/i&gt;&lt;br&gt;&lt;b&gt;Value&lt;/b&gt;&lt;/p&gt;&lt;hr&gt;&amp;nbsp; &amp;nbsp;FUNGI,&lt;div&gt;&amp;nbsp; &amp;nbsp;PLANT,&lt;/div&gt;&lt;div&gt;&amp;nbsp; &amp;nbsp;ANIMAL,&lt;/div&gt;&lt;div&gt;&amp;nbsp; &amp;nbsp;INSECT,&lt;/div&gt;&lt;div&gt;&amp;nbsp; &amp;nbsp;QUILL,&lt;/div&gt;&lt;div&gt;&amp;nbsp; &amp;nbsp;INKWELL,&lt;/div&gt;&lt;div&gt;&amp;nbsp; &amp;nbsp;MANUSCRIPT,&lt;/div&gt;&lt;div&gt;&amp;nbsp; &amp;nbsp;NULL,&lt;/div&gt;&lt;div&gt;&amp;nbsp; &amp;nbsp;EMPTY,&lt;/div&gt;&lt;div&gt;&amp;nbsp; &amp;nbsp;COVERED,&lt;/div&gt;" style="verticalAlign=top;align=left;overflow=fill;fontSize=14;fontFamily=Helvetica;html=1;rounded=0;shadow=0;comic=0;labelBackgroundColor=none;strokeWidth=1;" parent="1" vertex="1">
          <mxGeometry x="1910" y="60" width="407.5" height="230" as="geometry" />
        </mxCell>
        <mxCell id="yDijstEZP9wWc468jZzv-143" value="status" style="text;html=1;align=center;verticalAlign=middle;whiteSpace=wrap;rounded=0;" parent="1" vertex="1">
          <mxGeometry x="190" y="130" width="60" height="30" as="geometry" />
        </mxCell>
        <mxCell id="yDijstEZP9wWc468jZzv-145" value="action" style="text;html=1;align=center;verticalAlign=middle;whiteSpace=wrap;rounded=0;" parent="1" vertex="1">
          <mxGeometry x="705" y="870" width="60" height="30" as="geometry" />
        </mxCell>
        <mxCell id="yDijstEZP9wWc468jZzv-148" value="color" style="text;html=1;align=center;verticalAlign=middle;whiteSpace=wrap;rounded=0;" parent="1" vertex="1">
          <mxGeometry x="730" y="500" width="60" height="30" as="geometry" />
        </mxCell>
        <mxCell id="yDijstEZP9wWc468jZzv-150" value="side" style="shape=umlFrame;whiteSpace=wrap;html=1;pointerEvents=0;fillColor=#b0e3e6;strokeColor=#0e8088;width=70;height=30;" parent="1" vertex="1">
          <mxGeometry x="120" y="1830" width="2050" height="810" as="geometry" />
        </mxCell>
        <mxCell id="6hzLT0k25RyZsXePGHMC-63" style="edgeStyle=orthogonalEdgeStyle;rounded=0;orthogonalLoop=1;jettySize=auto;html=1;entryX=0.5;entryY=1;entryDx=0;entryDy=0;exitX=0.5;exitY=1;exitDx=0;exitDy=0;" parent="1" source="6hzLT0k25RyZsXePGHMC-5" target="yDijstEZP9wWc468jZzv-137" edge="1">
          <mxGeometry relative="1" as="geometry">
            <Array as="points">
              <mxPoint x="575" y="1360" />
              <mxPoint x="-820" y="1360" />
              <mxPoint x="-820" y="-280" />
              <mxPoint x="2550" y="-280" />
              <mxPoint x="2550" y="790" />
              <mxPoint x="2099" y="790" />
            </Array>
          </mxGeometry>
        </mxCell>
        <mxCell id="6hzLT0k25RyZsXePGHMC-5" value="CardResource" style="swimlane;fontStyle=1;align=center;verticalAlign=top;childLayout=stackLayout;horizontal=1;startSize=26;horizontalStack=0;resizeParent=1;resizeParentMax=0;resizeLast=0;collapsible=1;marginBottom=0;whiteSpace=wrap;html=1;" parent="1" vertex="1">
          <mxGeometry x="470" y="1221" width="210" height="100" as="geometry" />
        </mxCell>
        <mxCell id="6hzLT0k25RyZsXePGHMC-6" value="&lt;span style=&quot;font-size: 14px;&quot;&gt;frontResource: FrontResource&lt;/span&gt;&lt;br style=&quot;font-size: 14px;&quot;&gt;&lt;span style=&quot;font-size: 14px;&quot;&gt;backResource: BackResource&lt;/span&gt;&lt;br style=&quot;font-size: 14px;&quot;&gt;&lt;span style=&quot;font-size: 14px;&quot;&gt;kingdom: Kingdom&lt;/span&gt;" style="text;html=1;align=left;verticalAlign=middle;resizable=0;points=[];autosize=1;strokeColor=none;fillColor=none;" parent="6hzLT0k25RyZsXePGHMC-5" vertex="1">
          <mxGeometry y="26" width="210" height="60" as="geometry" />
        </mxCell>
        <mxCell id="6hzLT0k25RyZsXePGHMC-7" value="" style="line;strokeWidth=1;fillColor=none;align=left;verticalAlign=middle;spacingTop=-1;spacingLeft=3;spacingRight=3;rotatable=0;labelPosition=right;points=[];portConstraint=eastwest;strokeColor=inherit;" parent="6hzLT0k25RyZsXePGHMC-5" vertex="1">
          <mxGeometry y="86" width="210" height="14" as="geometry" />
        </mxCell>
        <mxCell id="6hzLT0k25RyZsXePGHMC-8" value="CardStarter" style="swimlane;fontStyle=1;align=center;verticalAlign=top;childLayout=stackLayout;horizontal=1;startSize=26;horizontalStack=0;resizeParent=1;resizeParentMax=0;resizeLast=0;collapsible=1;marginBottom=0;whiteSpace=wrap;html=1;" parent="1" vertex="1">
          <mxGeometry x="700" y="1226" width="180" height="90" as="geometry" />
        </mxCell>
        <mxCell id="6hzLT0k25RyZsXePGHMC-9" value="&lt;span style=&quot;font-size: 14px;&quot;&gt;frontStarter: FrontStarter&lt;/span&gt;&lt;br style=&quot;font-size: 14px;&quot;&gt;&lt;span style=&quot;font-size: 14px;&quot;&gt;backStarter: BackStarter&lt;/span&gt;" style="text;html=1;align=left;verticalAlign=middle;resizable=0;points=[];autosize=1;strokeColor=none;fillColor=none;" parent="6hzLT0k25RyZsXePGHMC-8" vertex="1">
          <mxGeometry y="26" width="180" height="50" as="geometry" />
        </mxCell>
        <mxCell id="6hzLT0k25RyZsXePGHMC-10" value="" style="line;strokeWidth=1;fillColor=none;align=left;verticalAlign=middle;spacingTop=-1;spacingLeft=3;spacingRight=3;rotatable=0;labelPosition=right;points=[];portConstraint=eastwest;strokeColor=inherit;" parent="6hzLT0k25RyZsXePGHMC-8" vertex="1">
          <mxGeometry y="76" width="180" height="14" as="geometry" />
        </mxCell>
        <mxCell id="6hzLT0k25RyZsXePGHMC-12" value="front" style="shape=umlFrame;whiteSpace=wrap;html=1;pointerEvents=0;fillColor=#ffcc99;strokeColor=#FFB366;width=70;height=30;" parent="1" vertex="1">
          <mxGeometry x="250" y="2040" width="800" height="490" as="geometry" />
        </mxCell>
        <mxCell id="6hzLT0k25RyZsXePGHMC-15" value="back" style="shape=umlFrame;whiteSpace=wrap;html=1;pointerEvents=0;fillColor=#d0cee2;strokeColor=#56517e;width=70;height=30;" parent="1" vertex="1">
          <mxGeometry x="1300" y="2040" width="800" height="490" as="geometry" />
        </mxCell>
        <mxCell id="6hzLT0k25RyZsXePGHMC-61" style="edgeStyle=orthogonalEdgeStyle;rounded=0;orthogonalLoop=1;jettySize=auto;html=1;exitX=1;exitY=0;exitDx=0;exitDy=0;" parent="1" source="6hzLT0k25RyZsXePGHMC-16" target="yDijstEZP9wWc468jZzv-140" edge="1">
          <mxGeometry relative="1" as="geometry">
            <Array as="points">
              <mxPoint x="2470" y="1840" />
              <mxPoint x="2470" y="192" />
            </Array>
          </mxGeometry>
        </mxCell>
        <mxCell id="6hzLT0k25RyZsXePGHMC-16" value="Side" style="swimlane;fontStyle=1;align=center;verticalAlign=top;childLayout=stackLayout;horizontal=1;startSize=26;horizontalStack=0;resizeParent=1;resizeParentMax=0;resizeLast=0;collapsible=1;marginBottom=0;whiteSpace=wrap;html=1;" parent="1" vertex="1">
          <mxGeometry x="1070" y="1840" width="210" height="192" as="geometry" />
        </mxCell>
        <mxCell id="6hzLT0k25RyZsXePGHMC-21" value="&lt;p style=&quot;margin: 0px 0px 0px 4px; line-height: 1.6;&quot;&gt;&lt;span style=&quot;font-size: 14px;&quot;&gt;&amp;nbsp;topLeftCorner: Value&lt;/span&gt;&lt;/p&gt;&lt;p style=&quot;margin: 0px 0px 0px 4px; line-height: 1.6;&quot;&gt;&lt;span style=&quot;font-size: 14px;&quot;&gt;&amp;nbsp;image: String&lt;/span&gt;&lt;/p&gt;&lt;p style=&quot;margin: 0px 0px 0px 4px; line-height: 1.6;&quot;&gt;&lt;span style=&quot;font-size: 14px;&quot;&gt;&amp;nbsp;kingdom: Kingdom&lt;/span&gt;&lt;/p&gt;&lt;p style=&quot;margin: 0px 0px 0px 4px; line-height: 1.6;&quot;&gt;&lt;span style=&quot;font-size: 14px;&quot;&gt;&amp;nbsp;topRightCorner: Value&lt;/span&gt;&lt;/p&gt;&lt;p style=&quot;margin: 0px 0px 0px 4px; line-height: 1.6;&quot;&gt;&lt;span style=&quot;font-size: 14px;&quot;&gt;&amp;nbsp;bottomLeftCorner: Value&lt;/span&gt;&lt;/p&gt;&lt;p style=&quot;margin: 0px 0px 0px 4px; line-height: 1.6;&quot;&gt;&lt;span style=&quot;font-size: 14px;&quot;&gt;&amp;nbsp;bottomRightCorner: Value&lt;/span&gt;&lt;/p&gt;" style="text;html=1;align=left;verticalAlign=middle;resizable=0;points=[];autosize=1;strokeColor=none;fillColor=none;" parent="6hzLT0k25RyZsXePGHMC-16" vertex="1">
          <mxGeometry y="26" width="210" height="150" as="geometry" />
        </mxCell>
        <mxCell id="6hzLT0k25RyZsXePGHMC-17" value="" style="line;strokeWidth=1;fillColor=none;align=left;verticalAlign=middle;spacingTop=-1;spacingLeft=3;spacingRight=3;rotatable=0;labelPosition=right;points=[];portConstraint=eastwest;strokeColor=inherit;" parent="6hzLT0k25RyZsXePGHMC-16" vertex="1">
          <mxGeometry y="176" width="210" height="16" as="geometry" />
        </mxCell>
        <mxCell id="6hzLT0k25RyZsXePGHMC-23" value="FrontGold" style="swimlane;fontStyle=1;align=center;verticalAlign=top;childLayout=stackLayout;horizontal=1;startSize=26;horizontalStack=0;resizeParent=1;resizeParentMax=0;resizeLast=0;collapsible=1;marginBottom=0;whiteSpace=wrap;html=1;" parent="1" vertex="1">
          <mxGeometry x="260" y="2270" width="280" height="122" as="geometry" />
        </mxCell>
        <mxCell id="6hzLT0k25RyZsXePGHMC-24" value="&lt;p style=&quot;margin: 0px 0px 0px 4px; line-height: 1.6;&quot;&gt;&lt;span style=&quot;font-size: 14px;&quot;&gt;requirementPoint: Value&lt;/span&gt;&lt;br style=&quot;font-size: 14px;&quot;&gt;&lt;span style=&quot;font-size: 14px;&quot;&gt;point: int&lt;/span&gt;&lt;br style=&quot;font-size: 14px;&quot;&gt;&lt;span style=&quot;font-size: 14px;&quot;&gt;requirementPlacement: ArrayList&amp;lt;Value&amp;gt;&lt;/span&gt;&lt;br&gt;&lt;/p&gt;" style="text;html=1;align=left;verticalAlign=middle;resizable=0;points=[];autosize=1;strokeColor=none;fillColor=none;" parent="6hzLT0k25RyZsXePGHMC-23" vertex="1">
          <mxGeometry y="26" width="280" height="80" as="geometry" />
        </mxCell>
        <mxCell id="6hzLT0k25RyZsXePGHMC-25" value="" style="line;strokeWidth=1;fillColor=none;align=left;verticalAlign=middle;spacingTop=-1;spacingLeft=3;spacingRight=3;rotatable=0;labelPosition=right;points=[];portConstraint=eastwest;strokeColor=inherit;" parent="6hzLT0k25RyZsXePGHMC-23" vertex="1">
          <mxGeometry y="106" width="280" height="16" as="geometry" />
        </mxCell>
        <mxCell id="6hzLT0k25RyZsXePGHMC-26" value="FrontResource" style="swimlane;fontStyle=1;align=center;verticalAlign=top;childLayout=stackLayout;horizontal=1;startSize=26;horizontalStack=0;resizeParent=1;resizeParentMax=0;resizeLast=0;collapsible=1;marginBottom=0;whiteSpace=wrap;html=1;" parent="1" vertex="1">
          <mxGeometry x="570" y="2270" width="210" height="82" as="geometry" />
        </mxCell>
        <mxCell id="6hzLT0k25RyZsXePGHMC-27" value="&lt;p style=&quot;margin: 0px 0px 0px 4px; line-height: 1.6;&quot;&gt;&lt;span style=&quot;font-size: 14px;&quot;&gt;point: int&lt;/span&gt;&lt;br&gt;&lt;/p&gt;" style="text;html=1;align=left;verticalAlign=middle;resizable=0;points=[];autosize=1;strokeColor=none;fillColor=none;" parent="6hzLT0k25RyZsXePGHMC-26" vertex="1">
          <mxGeometry y="26" width="210" height="40" as="geometry" />
        </mxCell>
        <mxCell id="6hzLT0k25RyZsXePGHMC-28" value="" style="line;strokeWidth=1;fillColor=none;align=left;verticalAlign=middle;spacingTop=-1;spacingLeft=3;spacingRight=3;rotatable=0;labelPosition=right;points=[];portConstraint=eastwest;strokeColor=inherit;" parent="6hzLT0k25RyZsXePGHMC-26" vertex="1">
          <mxGeometry y="66" width="210" height="16" as="geometry" />
        </mxCell>
        <mxCell id="6hzLT0k25RyZsXePGHMC-29" value="FrontStarter" style="swimlane;fontStyle=1;align=center;verticalAlign=top;childLayout=stackLayout;horizontal=1;startSize=26;horizontalStack=0;resizeParent=1;resizeParentMax=0;resizeLast=0;collapsible=1;marginBottom=0;whiteSpace=wrap;html=1;" parent="1" vertex="1">
          <mxGeometry x="790" y="2270" width="210" height="72" as="geometry" />
        </mxCell>
        <mxCell id="6hzLT0k25RyZsXePGHMC-30" value="&lt;p style=&quot;margin: 0px 0px 0px 4px; line-height: 1.6;&quot;&gt;&lt;br&gt;&lt;/p&gt;" style="text;html=1;align=left;verticalAlign=middle;resizable=0;points=[];autosize=1;strokeColor=none;fillColor=none;" parent="6hzLT0k25RyZsXePGHMC-29" vertex="1">
          <mxGeometry y="26" width="210" height="30" as="geometry" />
        </mxCell>
        <mxCell id="6hzLT0k25RyZsXePGHMC-31" value="" style="line;strokeWidth=1;fillColor=none;align=left;verticalAlign=middle;spacingTop=-1;spacingLeft=3;spacingRight=3;rotatable=0;labelPosition=right;points=[];portConstraint=eastwest;strokeColor=inherit;" parent="6hzLT0k25RyZsXePGHMC-29" vertex="1">
          <mxGeometry y="56" width="210" height="16" as="geometry" />
        </mxCell>
        <mxCell id="6hzLT0k25RyZsXePGHMC-32" value="BackSide" style="swimlane;fontStyle=1;align=center;verticalAlign=top;childLayout=stackLayout;horizontal=1;startSize=26;horizontalStack=0;resizeParent=1;resizeParentMax=0;resizeLast=0;collapsible=1;marginBottom=0;whiteSpace=wrap;html=1;" parent="1" vertex="1">
          <mxGeometry x="1602.5" y="2159.5" width="210" height="82" as="geometry" />
        </mxCell>
        <mxCell id="6hzLT0k25RyZsXePGHMC-33" value="&lt;p style=&quot;margin: 0px 0px 0px 4px; line-height: 1.6;&quot;&gt;&lt;span style=&quot;font-size: 14px;&quot;&gt;center: ArrayList&amp;lt;Value&amp;gt;&lt;/span&gt;&lt;br&gt;&lt;/p&gt;" style="text;html=1;align=left;verticalAlign=middle;resizable=0;points=[];autosize=1;strokeColor=none;fillColor=none;" parent="6hzLT0k25RyZsXePGHMC-32" vertex="1">
          <mxGeometry y="26" width="210" height="40" as="geometry" />
        </mxCell>
        <mxCell id="6hzLT0k25RyZsXePGHMC-34" value="" style="line;strokeWidth=1;fillColor=none;align=left;verticalAlign=middle;spacingTop=-1;spacingLeft=3;spacingRight=3;rotatable=0;labelPosition=right;points=[];portConstraint=eastwest;strokeColor=inherit;" parent="6hzLT0k25RyZsXePGHMC-32" vertex="1">
          <mxGeometry y="66" width="210" height="16" as="geometry" />
        </mxCell>
        <mxCell id="6hzLT0k25RyZsXePGHMC-35" value="BackGold" style="swimlane;fontStyle=1;align=center;verticalAlign=top;childLayout=stackLayout;horizontal=1;startSize=26;horizontalStack=0;resizeParent=1;resizeParentMax=0;resizeLast=0;collapsible=1;marginBottom=0;whiteSpace=wrap;html=1;" parent="1" vertex="1">
          <mxGeometry x="1347.5" y="2338.5" width="210" height="72" as="geometry" />
        </mxCell>
        <mxCell id="6hzLT0k25RyZsXePGHMC-36" value="&lt;p style=&quot;margin: 0px 0px 0px 4px; line-height: 1.6;&quot;&gt;&lt;br&gt;&lt;/p&gt;" style="text;html=1;align=left;verticalAlign=middle;resizable=0;points=[];autosize=1;strokeColor=none;fillColor=none;" parent="6hzLT0k25RyZsXePGHMC-35" vertex="1">
          <mxGeometry y="26" width="210" height="30" as="geometry" />
        </mxCell>
        <mxCell id="6hzLT0k25RyZsXePGHMC-37" value="" style="line;strokeWidth=1;fillColor=none;align=left;verticalAlign=middle;spacingTop=-1;spacingLeft=3;spacingRight=3;rotatable=0;labelPosition=right;points=[];portConstraint=eastwest;strokeColor=inherit;" parent="6hzLT0k25RyZsXePGHMC-35" vertex="1">
          <mxGeometry y="56" width="210" height="16" as="geometry" />
        </mxCell>
        <mxCell id="6hzLT0k25RyZsXePGHMC-54" style="edgeStyle=orthogonalEdgeStyle;rounded=0;orthogonalLoop=1;jettySize=auto;html=1;endArrow=block;endFill=0;" parent="1" source="6hzLT0k25RyZsXePGHMC-41" edge="1">
          <mxGeometry relative="1" as="geometry">
            <mxPoint x="1692.5" y="2239.5" as="targetPoint" />
          </mxGeometry>
        </mxCell>
        <mxCell id="6hzLT0k25RyZsXePGHMC-41" value="BackResource" style="swimlane;fontStyle=1;align=center;verticalAlign=top;childLayout=stackLayout;horizontal=1;startSize=26;horizontalStack=0;resizeParent=1;resizeParentMax=0;resizeLast=0;collapsible=1;marginBottom=0;whiteSpace=wrap;html=1;" parent="1" vertex="1">
          <mxGeometry x="1587.5" y="2338.5" width="210" height="72" as="geometry" />
        </mxCell>
        <mxCell id="6hzLT0k25RyZsXePGHMC-42" value="&lt;p style=&quot;margin: 0px 0px 0px 4px; line-height: 1.6;&quot;&gt;&lt;br&gt;&lt;/p&gt;" style="text;html=1;align=left;verticalAlign=middle;resizable=0;points=[];autosize=1;strokeColor=none;fillColor=none;" parent="6hzLT0k25RyZsXePGHMC-41" vertex="1">
          <mxGeometry y="26" width="210" height="30" as="geometry" />
        </mxCell>
        <mxCell id="6hzLT0k25RyZsXePGHMC-43" value="" style="line;strokeWidth=1;fillColor=none;align=left;verticalAlign=middle;spacingTop=-1;spacingLeft=3;spacingRight=3;rotatable=0;labelPosition=right;points=[];portConstraint=eastwest;strokeColor=inherit;" parent="6hzLT0k25RyZsXePGHMC-41" vertex="1">
          <mxGeometry y="56" width="210" height="16" as="geometry" />
        </mxCell>
        <mxCell id="6hzLT0k25RyZsXePGHMC-45" style="edgeStyle=orthogonalEdgeStyle;rounded=0;orthogonalLoop=1;jettySize=auto;html=1;entryX=0;entryY=0.14;entryDx=0;entryDy=0;entryPerimeter=0;exitX=0.5;exitY=0;exitDx=0;exitDy=0;endArrow=block;endFill=0;" parent="1" source="6hzLT0k25RyZsXePGHMC-23" target="6hzLT0k25RyZsXePGHMC-21" edge="1">
          <mxGeometry relative="1" as="geometry">
            <Array as="points">
              <mxPoint x="400" y="1887" />
            </Array>
          </mxGeometry>
        </mxCell>
        <mxCell id="6hzLT0k25RyZsXePGHMC-46" style="edgeStyle=orthogonalEdgeStyle;rounded=0;orthogonalLoop=1;jettySize=auto;html=1;entryX=0;entryY=0.453;entryDx=0;entryDy=0;entryPerimeter=0;exitX=0.5;exitY=0;exitDx=0;exitDy=0;endArrow=block;endFill=0;" parent="1" source="6hzLT0k25RyZsXePGHMC-26" target="6hzLT0k25RyZsXePGHMC-21" edge="1">
          <mxGeometry relative="1" as="geometry">
            <Array as="points">
              <mxPoint x="675" y="1934" />
            </Array>
          </mxGeometry>
        </mxCell>
        <mxCell id="6hzLT0k25RyZsXePGHMC-48" style="edgeStyle=orthogonalEdgeStyle;rounded=0;orthogonalLoop=1;jettySize=auto;html=1;entryX=0.002;entryY=0.724;entryDx=0;entryDy=0;entryPerimeter=0;exitX=0.5;exitY=0;exitDx=0;exitDy=0;endArrow=block;endFill=0;" parent="1" source="6hzLT0k25RyZsXePGHMC-29" target="6hzLT0k25RyZsXePGHMC-21" edge="1">
          <mxGeometry relative="1" as="geometry" />
        </mxCell>
        <mxCell id="6hzLT0k25RyZsXePGHMC-55" style="edgeStyle=orthogonalEdgeStyle;rounded=0;orthogonalLoop=1;jettySize=auto;html=1;entryX=1;entryY=0.25;entryDx=0;entryDy=0;exitX=0.5;exitY=0;exitDx=0;exitDy=0;endArrow=block;endFill=0;" parent="1" source="6hzLT0k25RyZsXePGHMC-50" target="6hzLT0k25RyZsXePGHMC-32" edge="1">
          <mxGeometry relative="1" as="geometry" />
        </mxCell>
        <mxCell id="6hzLT0k25RyZsXePGHMC-50" value="BackStarter" style="swimlane;fontStyle=1;align=center;verticalAlign=top;childLayout=stackLayout;horizontal=1;startSize=26;horizontalStack=0;resizeParent=1;resizeParentMax=0;resizeLast=0;collapsible=1;marginBottom=0;whiteSpace=wrap;html=1;" parent="1" vertex="1">
          <mxGeometry x="1842.5" y="2338.5" width="210" height="72" as="geometry" />
        </mxCell>
        <mxCell id="6hzLT0k25RyZsXePGHMC-51" value="&lt;p style=&quot;margin: 0px 0px 0px 4px; line-height: 1.6;&quot;&gt;&lt;br&gt;&lt;/p&gt;" style="text;html=1;align=left;verticalAlign=middle;resizable=0;points=[];autosize=1;strokeColor=none;fillColor=none;" parent="6hzLT0k25RyZsXePGHMC-50" vertex="1">
          <mxGeometry y="26" width="210" height="30" as="geometry" />
        </mxCell>
        <mxCell id="6hzLT0k25RyZsXePGHMC-52" value="" style="line;strokeWidth=1;fillColor=none;align=left;verticalAlign=middle;spacingTop=-1;spacingLeft=3;spacingRight=3;rotatable=0;labelPosition=right;points=[];portConstraint=eastwest;strokeColor=inherit;" parent="6hzLT0k25RyZsXePGHMC-50" vertex="1">
          <mxGeometry y="56" width="210" height="16" as="geometry" />
        </mxCell>
        <mxCell id="6hzLT0k25RyZsXePGHMC-53" style="edgeStyle=orthogonalEdgeStyle;rounded=0;orthogonalLoop=1;jettySize=auto;html=1;entryX=-0.002;entryY=0.425;entryDx=0;entryDy=0;entryPerimeter=0;exitX=0.5;exitY=0;exitDx=0;exitDy=0;endArrow=block;endFill=0;" parent="1" source="6hzLT0k25RyZsXePGHMC-35" target="6hzLT0k25RyZsXePGHMC-33" edge="1">
          <mxGeometry relative="1" as="geometry" />
        </mxCell>
        <mxCell id="6hzLT0k25RyZsXePGHMC-56" style="edgeStyle=orthogonalEdgeStyle;rounded=0;orthogonalLoop=1;jettySize=auto;html=1;entryX=0.998;entryY=0.436;entryDx=0;entryDy=0;entryPerimeter=0;exitX=0.5;exitY=0;exitDx=0;exitDy=0;endArrow=block;endFill=0;" parent="1" source="6hzLT0k25RyZsXePGHMC-32" target="6hzLT0k25RyZsXePGHMC-21" edge="1">
          <mxGeometry relative="1" as="geometry" />
        </mxCell>
        <mxCell id="6hzLT0k25RyZsXePGHMC-66" value="" style="endArrow=none;html=1;rounded=0;entryX=0.5;entryY=1;entryDx=0;entryDy=0;" parent="1" target="6hzLT0k25RyZsXePGHMC-8" edge="1">
          <mxGeometry width="50" height="50" relative="1" as="geometry">
            <mxPoint x="790" y="1360" as="sourcePoint" />
            <mxPoint x="800" y="1170" as="targetPoint" />
          </mxGeometry>
        </mxCell>
        <mxCell id="6hzLT0k25RyZsXePGHMC-67" value="" style="endArrow=none;html=1;rounded=0;entryX=0.146;entryY=0.506;entryDx=0;entryDy=0;entryPerimeter=0;" parent="1" edge="1">
          <mxGeometry width="50" height="50" relative="1" as="geometry">
            <mxPoint x="790" y="1360" as="sourcePoint" />
            <mxPoint x="570" y="1360" as="targetPoint" />
          </mxGeometry>
        </mxCell>
        <mxCell id="12uHre7UhJ3h7t7p80wL-5" value="" style="rounded=0;whiteSpace=wrap;html=1;opacity=30;fillColor=#e1d5e7;strokeColor=#9673a6;" parent="1" vertex="1">
          <mxGeometry x="950" y="1010" width="1440" height="730" as="geometry" />
        </mxCell>
      </root>
    </mxGraphModel>
  </diagram>
</mxfile>
